<?xml version="1.0" encoding="UTF-8" standalone="no"?>
<!-- Created with Inkscape (http://www.inkscape.org/) -->

<svg
   xmlns:dc="http://purl.org/dc/elements/1.1/"
   xmlns:cc="http://creativecommons.org/ns#"
   xmlns:rdf="http://www.w3.org/1999/02/22-rdf-syntax-ns#"
   xmlns:svg="http://www.w3.org/2000/svg"
   xmlns="http://www.w3.org/2000/svg"
   xmlns:xlink="http://www.w3.org/1999/xlink"
   xmlns:sodipodi="http://sodipodi.sourceforge.net/DTD/sodipodi-0.dtd"
   xmlns:inkscape="http://www.inkscape.org/namespaces/inkscape"
   width="210mm"
   height="297mm"
   viewBox="0 0 744.09448819 1052.3622047"
   id="svg2"
   version="1.1"
   inkscape:version="0.91 r13725"
   sodipodi:docname="hra - zasoby.svg">
  <defs
     id="defs4">
    <pattern
       y="0"
       x="0"
       height="6"
       width="6"
       patternUnits="userSpaceOnUse"
       id="WMFhbasepattern" />
  </defs>
  <sodipodi:namedview
     id="base"
     pagecolor="#ffffff"
     bordercolor="#666666"
     borderopacity="1.0"
     inkscape:pageopacity="0.0"
     inkscape:pageshadow="2"
     inkscape:zoom="1.4"
     inkscape:cx="387.29744"
     inkscape:cy="255.60789"
     inkscape:document-units="mm"
     inkscape:current-layer="layer2"
     showgrid="true"
     inkscape:window-width="1920"
     inkscape:window-height="1096"
     inkscape:window-x="1192"
     inkscape:window-y="-8"
     inkscape:window-maximized="1"
     inkscape:snap-bbox="true"
     inkscape:snap-bbox-midpoints="true">
    <inkscape:grid
       type="xygrid"
       id="grid4136"
       units="mm"
       spacingx="17.716536"
       originx="17.716536"
       originy="42.519686"
       spacingy="17.716536"
       empspacing="8" />
  </sodipodi:namedview>
  <metadata
     id="metadata7">
    <rdf:RDF>
      <cc:Work
         rdf:about="">
        <dc:format>image/svg+xml</dc:format>
        <dc:type
           rdf:resource="http://purl.org/dc/dcmitype/StillImage" />
        <dc:title></dc:title>
      </cc:Work>
    </rdf:RDF>
  </metadata>
  <g
     inkscape:label="Vrstva 1"
     inkscape:groupmode="layer"
     id="layer1">
    <text
       xml:space="preserve"
       style="font-style:normal;font-weight:normal;font-size:40px;line-height:125%;font-family:sans-serif;text-align:start;letter-spacing:0px;word-spacing:0px;text-anchor:start;fill:#000000;fill-opacity:1;stroke:none;stroke-width:1px;stroke-linecap:butt;stroke-linejoin:miter;stroke-opacity:1"
       x="-387.09567"
       y="146.02785"
       id="text4172"
       sodipodi:linespacing="125%"><tspan
         sodipodi:role="line"
         id="tspan4174"
         x="-387.09567"
         y="146.02785">3x 1 dílkové</tspan><tspan
         sodipodi:role="line"
         x="-387.09567"
         y="196.02783"
         id="tspan4176">1x 2 dílkové</tspan><tspan
         sodipodi:role="line"
         x="-387.09567"
         y="246.02783"
         id="tspan4178">0x 3 dílkové</tspan><tspan
         sodipodi:role="line"
         x="-387.09567"
         y="296.02783"
         id="tspan4275">5x 4 dílkové</tspan><tspan
         sodipodi:role="line"
         x="-387.09567"
         y="346.02783"
         id="tspan4279">2x 5 dílkové</tspan></text>
    <path
       style="fill:#000000;fill-opacity:1;fill-rule:nonzero;stroke:none"
       d="m 122.31442,179.19226 -0.41036,-0.81167 -0.59077,-1.27552 -0.0778,-0.26091 -0.21702,-0.6029 -0.51678,-1.17259 -0.35867,-0.79782 -0.51895,-1.30242 -0.40003,-1.29824 -0.35937,-1.65672 -0.21927,-1.11132 -0.2694,-1.47562 -0.32009,-2.32018 -0.0547,-1.38115 0.0355,-0.82149 0.17316,-1.16313 0.21867,-0.78163 0.16789,-0.5921 0.38082,-0.90437 0.4368,-0.63084 0.53938,-0.42793 0.32477,-0.14381 0.37938,-0.17534 0.57214,-0.44685 0.26757,-0.3438 0.80602,-0.9751 3.28517,-3.54241 1.04679,-1.01215 0.27092,-0.2875 0.53635,-0.76114 0.17509,-0.3778 0.0991,-0.23198 0.28264,-0.46902 0.51956,-0.66407 0.77124,-0.70743 0.53691,-0.28085 0.27984,-0.0451 0.10968,0.0386 0.0643,0.0357 0.21722,-0.0526 0.72801,-0.58053 1.21863,-1.06766 0.92415,-0.79572 3.15232,-2.4608 3.67831,-2.73536 3.05661,-2.17251 0.84399,-0.53098 0.34323,-0.21273 0.47216,-0.41824 0.0916,-0.16936 0.0761,-0.14583 0.49985,-0.52162 0.7137,-0.63051 0.71877,-0.54606 0.28862,-0.18119 0.15461,-0.0601 0.47228,-0.0396 0.26136,0.0239 0.18784,0.0226 0.35967,-0.0329 0.72305,-0.28638 0.87553,-0.47636 1.75105,-0.95271 2.27118,-1.1365 1.16628,-0.52771 0.40291,-0.1598 0.92935,-0.33267 0.98228,-0.39236 1.62887,-0.63459 2.50699,-0.87942 0.68444,-0.17669 0.42352,-0.0989 0.35584,-0.19089 0.1697,-0.18535 0.0932,-0.14121 0.1197,-0.17106 0.3037,-0.30642 0.57554,-0.39053 0.88858,-0.35284 0.63951,-0.0779 0.38659,0.0389 0.17859,0.0571 0.25845,0.0693 0.62565,-0.0262 0.34999,-0.10011 0.99827,-0.3142 2.58773,-0.6639 2.61172,-0.54666 1.5227,-0.23832 0.65842,-0.0451 0.1706,0.018 0.11262,-0.006 0.46045,-0.23672 0.26508,-0.19673 0.36338,-0.25349 0.68229,-0.30654 0.67396,-0.0687 0.67656,0.16282 0.36688,0.1814 0.37319,0.19232 0.4715,0.13558 0.24414,0.0192 0.089,-0.0223 0.0828,-0.0331 0.21768,0.0491 0.42826,0.26248 0.88141,0.84556 1.29718,1.46479 0.876,1.038 0.74233,0.88217 1.1509,1.28709 0.2152,0.19617 0.1946,0.13522 0.53468,0.6234 1.44988,2.03199 1.86487,2.82645 1.0081,1.54429 1.58369,2.56643 1.39246,2.4875 1.49642,2.99548 0.93008,1.93888 0.50373,1.04905 0.8124,1.86118 0.66826,1.81333 0.65195,2.01208 0.34956,1.21087 0.10687,0.46259 0.0982,0.97734 -0.0234,0.36305 -0.0423,0.33028 -0.015,0.50381 0.0349,0.11092 0.0303,0.12815 -0.1145,0.6341 -0.26698,0.82408 -0.30944,0.77577 -0.1537,0.26351 -0.17725,0.24797 -0.43646,0.35394 -0.25922,0.10597 -0.25922,0.10597 -0.42092,0.33041 -0.13987,0.21182 -0.28139,0.39549 -1.28867,1.50132 -1.60204,1.74053 -1.3051,1.32149 -0.3134,0.23919 -0.17307,0.12906 -0.48432,0.49807 -0.47126,0.62162 -0.32925,0.53963 -0.0461,0.17229 -0.0231,0.0861 -0.13186,0.2509 -0.36416,0.42871 -0.65447,0.58175 -0.48354,0.32287 -0.25292,0.11689 -0.1063,0.0178 -0.17983,0.0164 -0.45584,0.2195 -0.47554,0.36193 -0.44232,0.4447 -0.16631,0.24166 -0.17263,0.23075 -0.91616,0.83478 -0.57047,0.475 -1.21739,0.99416 -0.81201,0.68727 -0.69985,0.57881 -2.38738,1.74246 -2.72014,1.84718 -1.63337,1.03041 -0.69907,0.40361 -0.17184,0.0555 -0.12645,0.0584 -0.3314,0.40979 -0.1474,0.27444 -0.0916,0.16935 -0.2457,0.3312 -0.48601,0.46993 -0.78016,0.46498 -0.59827,0.19978 -0.3706,0.0391 -0.1706,-0.0181 -0.18784,-0.0226 -0.38152,0.0455 -0.8432,0.35576 -1.1112,0.59786 -0.93185,0.47974 -2.50731,1.15632 -1.1915,0.48403 -2.35193,0.92097 -1.51165,0.6106 -1.35243,0.53323 -2.55068,0.90464 -0.85458,0.26037 -0.63444,0.1624 -0.9701,0.31251 -0.68399,0.2784 -0.47262,0.31655 -0.176,0.17443 -0.11678,0.12567 -0.33691,0.22365 -0.62137,0.28593 -0.94534,0.25451 -0.69751,0.0533 -0.40381,-0.0435 -0.18322,-0.04 -0.2866,-0.0675 -0.66179,-0.0112 -0.26261,0.0497 -0.9218,0.27006 -2.44406,0.61005 -2.53019,0.58699 -1.89284,0.37918 -0.42689,0.0426 -0.54582,0.0383 -0.71597,0.1221 -1.38655,0.24709 -1.35253,0.15464 -0.48827,-0.0385 -0.43828,-0.0527 -0.98838,-0.27408 -0.9859,-0.42112 -0.84221,-0.47497 -0.30934,-0.25833 -0.68637,-0.60862 -0.80235,-0.65818 -0.44595,-0.36879 -1.05415,-0.99341 -1.18197,-1.24003 -1.2295,-1.37278 -0.59605,-0.70447 -0.57421,-0.71708 -1.30992,-1.86522 -1.37555,-2.20598 -1.31971,-2.31105 -0.57601,-1.12382 z m 5.50346,7.3377 0.83986,1.00063 0.5187,0.54524 0.39131,0.40031 0.41363,0.48939 0.73435,0.84309 1.29166,1.27864 0.77588,0.68802 0.32488,0.23479 0.65146,0.49771 0.27657,0.27724 0.074,0.10293 0.31396,0.24107 0.75268,0.39558 1.19266,0.47653 0.76902,0.19683 0.35212,0.0297 0.0937,-0.0395 0.10922,-0.0631 0.1214,-0.14291 -0.0143,-0.05 -0.32319,-0.20663 -0.95652,-0.49636 -0.51272,-0.25742 -0.86451,-0.56403 -0.2215,-0.20709 -0.16352,-0.1823 -0.40518,-0.34862 -0.15845,-0.0979 -0.19921,-0.11801 -0.61407,-0.53386 -1.20504,-1.15388 -0.7625,-0.8414 -0.63052,-0.7137 -0.50945,-0.5797 -0.54561,-0.61708 -1.13288,-1.45769 -1.14301,-1.62662 -1.11701,-1.75813 -1.04222,-1.83044 -0.96409,-1.84643 -0.83718,-1.80319 -0.67874,-1.70533 -0.2616,-0.78105 -0.56781,-1.74023 -0.291,-0.70584 -0.0711,-0.14831 -0.13841,-0.51721 -0.0387,-0.26888 -0.0513,-0.29076 -0.21409,-0.64828 -0.1341,-0.25755 -0.1152,-0.22477 -0.22961,-0.62474 -0.32481,-1.26887 -0.35487,-2.05252 -0.20781,-2.05004 0.004,-0.87609 0.006,-1.30007 -0.0948,-0.92103 -0.10554,-0.15753 -0.0908,-0.006 -0.0437,0.0253 -0.0794,0.0895 -0.19142,0.57657 -0.0999,0.40719 -0.1842,0.79086 -0.13916,1.07068 -0.0169,0.75257 0.10464,1.36684 0.40467,2.69371 0.34981,1.96806 0.17254,0.80334 0.57794,1.90917 0.831,2.17086 1.02727,2.33425 1.1651,2.37118 1.2525,2.32072 1.28605,2.12657 1.26915,1.84509 0.59943,0.76076 z m 0.0565,-5.931 1.41751,-0.67276 1.5675,-0.71565 1.6595,-0.78336 1.77626,-0.90902 1.81828,-0.96239 -1.16667,-2.02075 -0.46204,-0.82553 -0.48516,-0.73936 -0.27027,-0.26632 -0.28197,-0.0848 -0.31722,0.0812 -0.61922,0.41576 -0.6377,0.48469 -0.61752,0.44391 -2.17907,1.44741 -1.21999,0.76262 -2.88781,1.78378 0.53863,1.15998 0.42974,0.94613 0.15349,0.392 0.0572,0.19999 0.16228,0.25584 0.0614,0.081 0.18491,0.068 0.53274,-0.16195 0.78522,-0.38053 z m 1.0825,4.19567 0.23321,0.0256 0.84411,-0.15238 1.39195,-0.43955 2.1007,-0.77592 1.40242,-0.54754 1.8381,-0.72626 1.14319,-0.44157 0.36385,-0.15181 0.34951,-0.20179 0.12309,-0.11475 0.003,-0.0453 -0.0589,-0.22814 -0.62142,-1.12674 -0.86353,-1.39475 -0.73986,-1.02923 -0.17275,-0.14785 -0.14876,-0.0306 -0.38106,0.14719 -0.24324,0.18411 -0.32599,0.21734 -1.4826,0.81229 -0.93351,0.45158 -2.75056,1.34045 -2.66609,1.33537 -0.23231,0.17781 0.008,0.14077 0.43854,0.80997 0.66633,1.02801 0.56667,0.77968 0.14751,0.10416 z m -2.09879,-8.98298 2.27027,-1.33987 2.11398,-1.30789 2.0749,-1.2999 -0.65215,-1.35658 -0.56386,-1.20366 -0.35406,-0.81506 -0.26115,-0.67937 -0.91752,0.52973 -0.39786,0.24426 -0.89522,0.61882 -0.33984,0.26902 -0.87755,0.72511 -1.24554,0.99584 -1.83956,1.45528 -1.50723,1.24887 -0.10878,0.16474 0.002,0.12984 0.22085,0.76089 0.35327,0.99028 0.34314,0.82136 0.11352,0.19661 0.0488,0.0592 0.25169,-0.0434 0.88983,-0.42636 1.27797,-0.73783 z m 3.88031,11.36237 0.17151,0.22138 0.30642,0.30371 0.27905,0.13017 0.30506,-0.002 0.17184,-0.0555 0.51089,-0.14933 0.86258,-0.2213 0.86089,-0.24945 2.53222,-0.83572 2.65529,-0.95049 1.8381,-0.72626 0.21215,-0.13704 -0.0269,-0.0719 -0.30688,-0.40538 -0.23119,-0.27431 -0.53467,-0.62339 -0.37332,-0.57092 -0.13706,-0.21215 -0.27534,-0.35077 -0.1005,-0.073 -0.15336,-0.0134 -0.77014,0.2553 -0.51213,0.22288 -1.15535,0.52139 -0.9932,0.39866 -1.16505,0.45418 -1.76164,0.68211 -0.83396,0.32129 -1.36672,0.48324 -0.3063,0.0749 -0.3189,0.053 -0.39368,0.12534 -0.11339,0.18198 0.12952,0.27476 0.1589,0.19953 0.41362,0.4894 0.42162,0.52845 z m -7.69061,-14.02684 0.0672,-0.0101 0.26215,-0.15136 0.97585,-0.78187 1.52278,-1.27239 1.29678,-1.08366 2.03785,-1.54065 0.86584,-0.54359 1.07337,-0.6634 -0.34483,-0.84952 -0.34989,-0.93396 -0.36635,-1.11382 -0.14764,-0.48275 -0.27208,-0.67305 -0.0723,-0.0748 -0.11722,0.024 -0.55369,0.37793 -0.75908,0.62759 -0.76956,0.73558 -0.32385,0.34718 -0.59017,0.61744 -2.13096,2.06046 -1.44126,1.31272 -0.27723,0.27657 -0.36372,0.5304 -0.10696,0.57149 0.12502,0.67059 0.1598,0.40292 0.13917,0.342 0.18885,0.60459 0.0101,0.16892 -0.002,0.24875 0.0791,0.18736 0.11137,0.0668 0.0735,0.002 z m 10.14453,16.68796 0.33457,0.30201 0.667,0.47418 0.23197,0.0991 0.13153,0.026 0.45674,-0.0161 1.08195,-0.14406 1.94451,-0.36534 2.1113,-0.50532 0.97181,-0.28436 1.37179,-0.39879 1.09996,-0.31466 0.43906,-0.1224 0.42937,-0.18965 0.15124,-0.11645 0.0247,-0.058 -0.003,-0.0564 -0.0837,-0.17016 -0.29887,-0.36631 -0.34088,-0.31292 -0.34087,-0.31294 -0.71835,-0.76494 -0.26272,-0.32892 -0.22029,-0.28061 -0.37871,-0.37846 -0.0815,-0.0404 -0.52182,0.15564 -1.41796,0.57107 -1.60702,0.62198 -1.12012,0.35542 -0.99827,0.31421 -1.18227,0.44955 -0.5466,0.21364 -1.09196,0.35373 -0.37352,0.0846 -0.2563,0.0606 -0.3983,0.14257 -0.20415,0.17613 -8.1e-4,0.17521 0.0849,0.0966 0.29843,0.26462 0.61744,0.59018 z m -11.47071,-20.8012 0.10461,-0.0458 0.30078,-0.26103 0.14785,-0.17275 0.17432,-0.20259 0.53893,-0.52961 0.29154,-0.22657 0.27431,-0.2312 0.51247,-0.49977 0.14154,-0.18367 0.15709,-0.2072 0.69478,-0.66329 0.42555,-0.34763 0.45199,-0.37747 0.89264,-0.85034 0.32386,-0.34717 0.28647,-0.31104 0.74185,-0.6322 0.31507,-0.21104 0.28862,-0.18119 0.41292,-0.36947 0.0605,-0.1223 0.007,-0.1643 -0.1124,-0.64874 -0.0909,-0.38444 -0.21837,-0.90796 -0.15407,-0.87227 -0.08,-0.39075 -0.12827,-0.3483 -0.10382,-0.12939 -0.058,-0.0248 -0.0845,0.005 -0.28861,0.1812 -0.68892,0.57252 -1.16988,1.1269 -1.07572,1.18907 -0.36709,0.47409 -0.2394,0.34211 -0.44817,0.53547 -0.12939,0.10383 -0.14662,0.0992 -0.47632,0.53716 -0.26755,0.34379 -0.65187,0.81328 -0.63803,0.76159 -0.18523,0.20889 -0.25032,0.34842 -0.13941,0.3135 -0.0377,0.31306 0.0119,0.19707 0.0641,0.69119 0.12007,0.96471 0.15102,0.53906 0.15091,0.16045 0.12061,0.0324 0.0672,-0.0101 z m 4.11999,-6.48568 1.06187,-1.13738 0.48557,-0.57161 0.14784,-0.17275 0.24616,-0.2295 0.20923,-0.0917 0.14582,0.0761 0.0395,0.0937 0.016,0.0781 -0.13018,0.27904 -0.49141,0.66238 -0.60863,0.68636 -0.56202,0.61577 -0.83632,0.84695 -0.52677,0.44977 -0.23277,0.0761 -0.10337,-0.0277 -0.0252,-0.0437 -0.0101,-0.0672 0.11463,-0.25552 0.49309,-0.63422 0.56665,-0.63299 z m 9.91082,29.55172 0.25259,0.16 0.55811,0.26036 0.18951,0.0508 0.38029,0.0281 1.75759,-0.1846 2.34034,-0.36085 2.21636,-0.44948 0.81258,-0.207 0.72812,-0.20191 1.3504,-0.28448 0.39875,-0.041 0.37059,-0.0392 0.32815,-0.0875 0.11845,-0.0976 0.0214,-0.11431 -0.0819,-0.14199 -0.28581,-0.24279 -0.33412,-0.20031 -0.29966,-0.19109 -0.50393,-0.39356 -0.11013,-0.14032 -0.10553,-0.15752 -0.26351,-0.15371 -0.45673,0.0161 -0.73273,0.21916 -0.52646,0.17287 -0.8638,0.29483 -1.95917,0.59226 -1.95791,0.51872 -1.67392,0.35476 -0.60505,0.0871 -0.86304,0.11962 -0.68443,0.17669 -0.16846,0.11183 0.0269,0.0719 0.15552,0.14325 0.4707,0.31078 z m 6.68276,-1.16396 0.60921,-0.2061 0.90333,-0.20114 0.38952,-0.006 0.0643,0.0357 -0.0138,0.0516 -0.27937,0.14673 -0.83398,0.32129 -0.73275,0.21916 -0.32814,0.0875 -0.3832,0.0173 -0.0349,-0.1109 0.326,-0.21734 0.31383,-0.1375 z m -21.73592,-25.94313 0.11092,-0.0349 0.49693,-0.47623 0.2894,-0.35641 0.76572,-0.89358 0.85941,-0.9331 0.38139,-0.42408 0.69556,-0.83851 0.20833,-0.29505 0.16631,-0.24165 0.39862,-0.41948 0.15125,-0.11644 0.17307,-0.12905 0.62924,-0.62545 0.34402,-0.38794 0.34401,-0.38795 0.66201,-0.64436 0.20585,-0.14797 0.16216,-0.12275 0.27846,-0.3501 0.0679,-0.18491 0.0273,-0.20506 -0.0796,-0.66766 -0.16747,-0.71889 -0.21194,-0.51844 -0.0896,-0.0794 -0.10629,0.0177 -0.39909,0.31779 -0.49984,0.52163 -0.45742,0.56992 -0.14909,0.24627 -0.13354,0.22274 -0.34401,0.38795 -0.14031,0.11014 -0.17308,0.12905 -0.65109,0.63805 -0.37678,0.40687 -0.36586,0.40056 -0.61831,0.61914 -0.16216,0.12274 -0.1357,0.0929 -0.33478,0.35348 -0.34694,0.43333 -0.22048,0.37488 -0.0214,0.1143 -0.0341,0.0925 -0.35663,0.36611 -0.25876,0.20764 -0.19954,0.1589 -0.27723,0.27658 -0.15665,0.30889 -0.0982,0.43535 -0.0377,0.31305 -0.0633,0.54627 -0.0607,0.77779 0.0489,0.43783 0.14167,0.19492 0.11892,0.004 z m 1.50527,-3.44688 0.10081,-0.20383 0.21756,-0.3295 0.21969,-0.19966 0.17353,-0.0274 0.0551,0.0702 0.005,0.0845 -0.20787,0.39673 -0.31708,0.45978 -0.2974,0.31734 -0.0828,0.0332 -0.0251,-0.0437 0.0705,-0.33198 0.0881,-0.22567 z m 1.03069,-1.4689 0.0466,-0.0706 0.21969,-0.19967 0.16385,-0.0946 0.21845,-0.12613 0.0941,0.0621 -0.0991,0.23197 -0.10081,0.20383 -0.24447,0.25765 -0.22184,0.0699 -0.10553,-0.15753 0.029,-0.1769 z m 1.4954,-1.44594 0.0651,-0.13951 0.1294,-0.10382 0.061,-0.0207 0.0395,0.0937 -0.0214,0.11429 -0.0386,0.10969 -0.0996,0.13028 -0.0564,0.004 -0.0407,-0.0201 -0.0458,-0.10462 0.007,-0.0626 z m 0.84556,-0.8814 0.19616,-0.21519 0.28861,-0.18121 0.13108,-0.0757 0.12061,0.0324 -0.0461,0.1723 -0.1974,0.28873 -0.17139,0.15721 -0.134,0.12105 -0.20922,0.0917 -0.12231,-0.0604 0.0336,-0.19414 0.11047,-0.1366 z m 13.85049,35.97181 0.32229,0.003 1.09456,-0.1222 2.29034,-0.34655 3.44029,-0.67551 1.95499,-0.47334 0.72013,-0.24101 0.0857,-0.0786 8.1e-4,-0.0735 -0.2169,-0.22432 -0.18198,-0.11338 -0.1286,-0.0714 -0.39289,-0.0498 -1.09286,0.15036 -1.46594,0.33661 -2.28482,0.53271 -2.72603,0.52526 -1.01641,0.10621 -0.94917,0.0965 -0.55967,0.0901 -0.12815,0.0303 -0.15291,0.0883 -0.0341,0.0925 0.0677,0.092 0.27443,0.1474 0.65302,0.14729 0.42566,0.0309 z m -18.67446,-32.64782 0.0937,-0.0395 0.44694,-0.46194 1.03788,-1.2546 0.79928,-1.08771 0.18816,-0.25427 0.4314,-0.4384 0.16846,-0.11183 0.18862,-0.15258 0.70402,-0.69774 0.386,-0.44133 0.86695,-0.9957 0.71957,-0.72128 0.23984,-0.24043 0.34187,-0.51778 0.1902,-0.50302 0.0121,-0.45844 -0.0837,-0.17015 -0.0677,-0.092 -0.22059,-0.004 -0.34614,0.2581 -0.52171,0.53423 -0.34402,0.38794 -0.36586,0.40057 -0.61832,0.61913 -0.16215,0.12275 -0.19955,0.15889 -0.89847,0.9411 -1.12697,1.2769 -0.94464,1.11338 -0.22387,0.31858 -0.13524,0.19459 -0.34571,0.35979 -0.15752,0.10552 -0.0983,0.0568 -0.15077,0.21813 -0.13264,0.42611 -0.0174,0.65088 0.11734,0.35461 0.1383,0.1386 0.0908,0.006 z m 18.84971,19.65759 0.0706,0.0466 0.28783,-0.006 0.16092,-0.0492 0.16091,-0.0492 0.22061,0.004 0.0694,0.12015 -0.0961,0.1866 -0.134,0.12105 -0.0857,0.0786 -0.0979,0.15845 0.16439,0.38569 0.40947,0.60828 0.36995,0.51462 0.94706,1.18631 0.95923,1.10647 0.72758,0.73049 0.15844,0.0979 0.0988,0.045 0.26565,0.28355 0.11814,0.17937 0.18411,0.24323 0.99617,0.96864 0.63299,0.56664 1.2752,1.0988 0.575,0.54186 0.1383,0.13862 0.32488,0.23477 0.13952,0.0651 0.41858,0.19524 0.68084,0.42251 0.40472,0.24694 0.69931,0.35357 0.60472,0.18973 0.59626,0.049 0.30337,-0.0295 0.39706,-0.0691 0.34029,-0.16735 0.10585,-0.11937 -0.013,-0.12354 -0.12106,-0.134 -0.36058,-0.17048 -0.41181,-0.0827 -0.33197,-0.0705 -0.91868,-0.43081 -0.97881,-0.58543 -0.7519,-0.5708 -0.1652,-0.21047 -0.13534,-0.18401 -0.80236,-0.65818 -0.51485,-0.38724 -0.56823,-0.42926 -1.16046,-0.97573 -0.39763,-0.41124 -0.80788,-0.84432 -0.7482,-0.79139 -0.32533,-0.33647 -0.63266,-0.84355 -0.22534,-0.36505 -0.52635,-0.86124 -0.73355,-1.0183 -1.50327,-2.07399 -1.27252,-1.90138 -0.36917,-0.68983 -0.008,-0.14077 0.002,-0.14706 -0.15012,-0.33568 -0.13366,-0.15585 -0.17615,-0.20414 -0.5293,-0.81584 -1.06745,-1.87412 -1.6347,-3.13409 -1.32998,-2.85856 -0.36712,-0.93859 -0.44033,-1.21672 -0.58661,-1.39443 -0.28932,-0.67767 -0.48153,-1.33857 -0.43077,-1.52809 -0.44058,-1.97391 -0.24495,-1.25671 -0.43224,-2.21174 -0.23123,-1.68699 0.002,-0.90425 0.0351,-0.54457 0.022,-0.66811 -0.0872,-0.60506 -0.1135,-0.19661 -0.15969,-0.0243 -0.17139,0.1572 -0.31203,0.54425 -0.22712,0.64086 -0.0907,0.37274 -0.0933,1.1753 0.0168,1.3156 0.12514,1.04919 0.10597,0.25921 0.22253,0.78905 0.45577,2.22728 0.33078,1.5567 0.74001,2.8205 0.95432,2.81328 1.32841,3.20899 0.88469,1.93594 0.87369,1.56368 4.4892,7.57374 0.82399,1.30106 z m 0.65975,-6.42493 0.88521,-0.40913 3.19839,-1.59899 1.7918,-0.93256 3.84116,-1.99924 2.84841,-1.49888 1.09568,-0.57433 0.9986,-0.59112 0.33061,-0.23456 0.0248,-0.058 -0.087,-0.22646 -0.74968,-1.47505 -0.55834,-1.01751 -1.40507,-2.50935 -1.10367,0.53526 -0.47767,0.23209 -0.94231,0.58773 -0.31339,0.23919 -0.29615,0.24381 -0.49784,0.27286 -0.19076,0.0227 -0.15169,0.0147 -0.23737,0.0934 -0.0529,0.0596 -0.51461,0.36993 -5.22024,3.21781 -4.46072,2.69189 -1.30275,0.79585 -0.44615,0.28671 0.0257,0.14538 0.61846,1.17214 0.48391,0.81291 1.24192,2.05012 1.6238,-0.71905 z m 0.88229,4.90839 0.42882,0.74275 2.1721,-0.90452 1.7675,-0.77288 4.79865,-2.33359 4.86668,-2.51849 2.60303,-1.44461 0.92507,-0.59235 0.0886,-0.12398 -0.0286,-0.1 -0.32748,-0.46631 -0.22657,-0.29155 -0.29257,-0.35537 -0.77309,-1.11199 -0.36869,-0.58815 -0.8446,-1.36199 -0.72722,0.40529 -2.28165,1.2445 -5.57497,2.95656 -1.73889,0.87287 -2.10735,1.0419 -2.24134,1.16297 -2.30226,1.18357 0.8803,1.29768 0.78277,1.17923 0.52175,0.87845 z m 15.53543,-8.63442 0.12815,-0.0302 0.22398,0.06 0.11183,0.16845 -0.029,0.17692 -0.10291,0.0739 -0.0937,0.0396 -0.2349,-0.0537 -0.0958,-0.0904 -0.0866,-0.12477 0.0352,-0.166 0.14368,-0.0538 z m -19.56817,-1.1253 1.01121,-0.56927 0.48522,-0.29471 1.12799,-0.69493 3.18441,-1.92591 3.69612,-2.25046 2.91136,-1.76825 2.58996,-1.56814 -0.93593,-1.84811 -0.7829,-1.55782 -0.36375,-0.88229 -0.0618,-0.18275 -0.1215,-0.23569 -0.14921,-0.13232 -0.22398,-0.06 -0.15338,-0.0134 -0.21429,0.007 -0.33445,0.0766 -0.0747,0.0723 -0.0622,0.0941 -0.54108,0.39977 -2.08706,1.37974 -2.99996,1.89223 -2.09968,1.35789 -3.44059,2.36509 -1.51862,1.15349 -0.49278,0.35732 -0.83137,0.55282 -0.1983,0.0854 -0.22185,0.0699 -0.25414,0.19042 -0.063,0.26936 0.11903,0.38276 0.13411,0.25754 0.31576,0.64784 0.1964,0.54199 0.0887,0.25461 0.3713,0.81967 0.2287,0.42139 0.54573,0.99566 1.22045,-0.66092 z m 5.16028,-5.4406 0.0512,-0.0878 0.15923,-0.0773 0.17521,6.1e-4 0.15846,0.0979 0.0567,0.0983 0.0333,0.0828 -0.0226,0.18783 -0.11341,0.18198 -0.14661,0.0992 -0.0908,-0.006 -0.0753,-0.0294 -0.13197,-0.1277 -0.0727,-0.17646 -0.0101,-0.16891 0.0294,-0.0752 z m -0.40182,-1.70499 0.0668,-0.11137 0.25753,-0.13413 0.29245,-0.0232 0.22566,0.0882 0.0458,0.10462 0.0257,0.14537 -0.14909,0.24628 -0.28399,0.16396 -0.28783,0.006 -0.11307,-0.0949 -0.0676,-0.092 -0.0525,-0.21722 0.0404,-0.0815 z m 1.9924,20.579 0.26273,0.32892 0.42116,0.42678 0.30428,0.17386 0.22814,-0.0589 0.11216,-0.10845 0.10754,-0.0912 0.5386,-0.2527 0.36553,-0.12366 0.52476,-0.20101 2.19517,-0.99068 1.32381,-0.63322 2.90977,-1.41782 2.25105,-1.09573 0.95535,-0.4642 2.10227,-1.12636 1.89597,-1.08008 1.19184,-0.76092 0.12139,-0.14291 -0.0332,-0.0828 -0.2724,-0.39614 -0.21227,-0.24155 -0.57084,-0.66077 -0.67049,-0.90908 -0.71633,-1.01368 -4.04025,2.2598 -1.69473,0.94934 -3.0341,1.60609 -0.84613,0.40114 -1.63935,0.74258 -1.87965,0.88132 -1.74395,0.78841 -1.10873,0.4508 -0.342,0.13919 -0.51506,0.26826 -0.0747,0.0723 -0.0231,0.0861 0.16273,0.35754 0.65495,0.93261 0.78817,0.98677 z m -10.08657,-18.07586 0.11092,-0.0349 0.5163,-0.34177 0.32431,-0.2455 0.5503,-0.43424 1.85262,-1.33174 2.19753,-1.51633 1.92491,-1.25699 0.6163,-0.37038 0.73645,-0.43977 2.25091,-1.47432 2.4269,-1.64876 1.67954,-1.20271 0.19785,-0.18704 -0.0194,-0.13446 -0.29268,-0.73398 -0.23841,-0.4886 -0.26363,-0.5323 -0.47434,-1.12427 -0.15517,-0.42014 -0.11105,-0.34369 -0.21655,-0.50121 -0.0597,-0.053 -0.10631,0.0177 -0.70244,0.3473 -1.75398,0.99809 -3.00335,1.83593 -2.56597,1.68537 -0.64863,0.491 -0.73892,0.58682 -0.61461,0.39853 -0.27769,0.17489 -0.71708,0.57421 -0.34278,0.31441 -0.39108,0.35687 -1.33,1.00089 -0.72215,0.48976 -1.6846,1.11825 0.28007,0.71212 0.65982,1.67257 0.70136,1.51751 0.31192,0.48985 0.0925,0.034 z m 5.97511,-6.55184 0.29862,-0.39088 1.62896,-1.66867 0.43647,-0.35394 0.039,-0.008 0.11307,0.0949 0.0505,0.0874 0.0206,0.0609 -0.0836,0.20844 -0.3171,0.45979 -0.67418,0.7242 -0.74815,0.62128 -0.30585,0.17658 -0.29198,0.12489 -0.19076,0.0227 -0.005,-0.0845 0.0294,-0.0752 z m 1.72352,-2.91751 0.96336,-0.42512 0.34368,-0.11104 0.0643,0.0357 0.004,0.158 -0.12893,0.20551 -0.20585,0.14797 -0.11722,0.024 -0.16723,0.0383 -0.57936,0.23255 -0.30123,0.15935 -0.33399,0.17827 -0.35461,0.11734 -0.16429,-0.007 -0.0471,-0.0311 -0.0425,-0.0484 0.0386,-0.10968 0.40246,-0.26148 0.62598,-0.30316 z m 3.98071,-0.52147 0.0341,-0.0925 0.13862,-0.13828 0.17184,-0.0555 0.15044,0.0588 0.0551,0.0702 0.0395,0.0937 -0.0399,0.18321 -0.081,0.0614 -0.0874,0.0504 -0.17984,0.0165 -0.15045,-0.0588 -0.0631,-0.10922 0.0122,-0.0798 z m 0.88757,-0.93479 0.12308,-0.11475 0.25922,-0.10597 0.22229,0.0319 0.11183,0.16846 -0.0151,0.12522 -0.0496,0.11599 -0.19323,0.16982 -0.23737,0.0934 -0.23784,-0.008 -0.077,-0.0575 -0.0551,-0.0702 0.06,-0.22398 0.0886,-0.12398 z m -0.17811,31.67734 0.38964,0.37216 0.91711,0.78127 0.36104,0.27216 0.80821,0.56741 1.05073,-0.47557 0.94152,-0.4125 0.5949,-0.25608 1.49566,-0.68876 6.78585,-3.30613 2.66779,-1.30722 1.2692,-0.60171 0.40122,-0.18794 0.63645,-0.41116 0.42848,-0.393 0.15831,-0.28075 0.0135,-0.15337 -0.016,-0.0781 -0.13073,-0.20123 -0.80034,-0.90693 -0.5313,-0.56709 -1.3421,-1.36603 -2.05059,1.14021 -2.4035,1.28571 -7.46722,3.81604 -2.36657,1.14788 -0.61675,0.2687 -1.12935,0.38988 -0.3252,0.0422 -0.208,0.0182 -0.31721,0.0812 -0.184,0.13536 -0.0353,0.16598 0.0457,0.10461 0.26104,0.30078 0.69774,0.70402 z m 6.77111,-3.45781 0.45291,-0.1741 0.32938,-0.16104 0.11553,-0.0521 0.22859,0.0427 0.0614,0.081 0.0521,0.11553 -0.0714,0.1286 -0.12184,0.0412 -0.33907,0.0938 -0.44322,0.24133 -0.2466,0.12781 -0.24076,0.037 -0.10507,-0.0559 -0.0378,-0.0655 -0.0378,-0.0655 -0.006,-0.11261 0.15585,-0.13368 0.25461,-0.0887 z m 1.74902,-0.70395 0.31384,-0.13751 0.45798,-0.0896 0.21598,0.0209 0.0361,0.0373 0.0252,0.0437 -0.0513,0.0878 -0.19492,0.14167 -0.38569,0.16443 -0.35336,0.0438 -0.0988,-0.0449 -0.0551,-0.0702 0.0197,-0.14246 0.0702,-0.0551 z m -21.74665,-22.73288 0.52261,-0.33086 0.95277,-0.69572 0.26338,-0.22488 0.46293,-0.38379 2.41678,-1.81767 2.15045,-1.54741 1.2666,-0.83323 2.73197,-1.65012 3.3218,-1.99066 -0.49969,-1.54656 -0.40169,-1.3264 -0.207,-0.81259 -0.0497,-0.26261 -0.17364,-0.35122 -0.11138,-0.0668 -0.19076,0.0227 -1.10828,0.55249 -1.52459,0.86565 -1.44768,0.9232 -0.50369,0.36364 -0.33523,0.25179 -0.34492,0.18458 -0.16891,0.0101 -0.058,-0.0248 -0.0471,-0.0311 -0.0584,-0.12646 0.0301,-0.25044 0.20157,-0.40765 0.34401,-0.38794 0.21215,-0.13705 0.21215,-0.13705 0.48015,-0.37917 0.17602,-0.17443 0.67461,-0.62253 1.80678,-1.43636 0.88892,-0.62973 0.12646,-0.0584 0.0988,0.0449 0.0429,0.15 -0.11171,0.21012 -0.24616,0.2295 -0.15753,0.10552 -0.25583,0.16228 -0.23986,0.24042 0.0849,0.0966 0.38614,-0.0627 0.29829,-0.11396 0.292,-0.12489 0.39953,-0.21611 0.20247,-0.20428 0.0209,-0.21599 -0.0584,-0.12645 -0.087,-0.22646 -0.16927,-1.12564 -0.0617,-0.83826 -0.0231,-0.29244 -0.11229,-0.27015 -0.12398,-0.0886 -0.25968,0.004 -0.55245,0.30439 -0.40707,0.27872 -0.42093,0.3304 -0.41585,0.41487 -0.1554,0.23535 -0.0386,0.10969 -0.0432,0.12691 -0.20371,0.2778 -0.75784,0.55406 -1.07799,0.68063 -0.67554,0.41915 -1.66399,1.17916 -1.82108,1.38637 -1.68662,1.367 -0.67631,0.59437 -0.60156,0.52207 -1.29677,1.08366 -1.26863,1.08198 -0.57508,0.49222 -0.0529,0.0596 -0.0928,0.2429 -0.0805,0.54165 0.0319,0.8118 0.10856,0.49074 0.10721,0.1857 0.0643,0.0357 0.17183,-0.0555 1.12292,-0.77939 1.65261,-1.27455 1.8051,-1.46452 0.8057,-0.69819 0.5377,-0.45608 1.06492,-0.80417 0.91583,-0.55788 0.46846,-0.19764 0.19706,-0.0118 0.0425,0.0484 0.0458,0.1046 -0.10833,0.26645 -0.7057,0.66958 -1.07585,0.81048 -0.65954,0.49729 -1.78786,1.46913 -0.854,0.74065 -1.58787,1.41193 -0.78386,0.68558 -0.33185,0.30811 -0.43094,0.54008 -0.20404,0.55472 0.0263,0.62565 0.0846,0.37352 0.21037,0.86888 0.1124,0.64874 0.0295,0.30337 0.10598,0.25923 0.10677,0.084 0.26429,-0.0215 0.61338,-0.32501 0.46799,-0.29933 z m 0.7748,-2.7193 0.15416,-0.16183 0.2823,-0.19211 0.58184,-0.37961 2.43816,-1.93198 1.09724,-0.92477 1.02079,-0.88063 1.1237,-0.95461 0.99431,-0.85078 0.90187,-0.88479 0.26124,-0.35473 -0.0101,-0.0672 -0.0252,-0.0437 -0.16261,0.0211 -0.4386,0.2241 -1.82154,1.28469 -2.27308,1.76384 -1.03677,0.80248 -0.44908,0.3321 -0.94353,0.66126 -0.86077,0.62804 -0.10291,0.0739 -0.17355,0.0274 -0.0643,-0.0357 -0.0206,-0.0609 0.14908,-0.24628 0.57171,-0.54853 0.59401,-0.45945 0.37261,-0.28796 0.28353,-0.26565 0.22894,-0.23411 0.75277,-0.63852 1.57954,-1.1741 2.44245,-1.67229 1.54767,-0.95181 0.72891,-0.37714 0.21092,-0.0635 0.1563,-0.0319 0.22568,0.0882 0.0446,0.17814 -0.13355,0.22275 -0.14031,0.11013 -0.15754,0.10551 -0.23816,0.26858 -0.0432,0.12691 -0.0386,0.10968 -0.33601,0.42703 -0.95773,0.98984 -1.97725,1.79696 -2.39233,2.03658 -1.23463,0.98953 -1.13339,0.88738 -0.48184,0.35101 -0.24492,0.15597 -0.29784,0.21565 -0.13108,0.0756 -0.23444,0.048 -0.17862,-0.0571 -0.0601,-0.1546 0.0496,-0.11599 z m -0.9743,-4.84069 0.0857,-0.0786 0.18569,-0.10722 0.19076,-0.0227 0.11137,0.0668 0.0101,0.0672 -0.0231,0.0862 -0.15877,0.17906 -0.22939,0.13243 -0.18445,0.0337 -0.0597,-0.053 -0.0206,-0.0609 0.0352,-0.16598 0.0575,-0.0769 z m 0.77293,-0.67928 0.27893,-0.24842 0.58939,-0.44223 0.37891,-0.27703 0.30292,-0.1312 0.10969,0.0386 0.0488,0.0592 0.0206,0.0609 0.006,0.11262 -0.11971,0.17105 -0.17938,0.11813 -0.4243,0.2741 -0.47554,0.36194 -0.23231,0.1778 -0.23106,0.10429 -0.0908,-0.006 -0.0361,-0.0373 -0.0333,-0.0828 0.029,-0.17691 0.0575,-0.0769 z m 4.08312,-3.5225 0.22432,-0.2169 1.07922,-0.75416 1.3183,-0.81937 0.78814,-0.42591 0.30292,-0.13119 0.0408,0.0201 -0.0559,0.10507 -0.8074,0.67004 -1.85553,1.37714 -0.90323,0.57973 -0.0937,0.0395 -0.13153,-0.026 -0.0412,-0.12184 0.0618,-0.19583 0.073,-0.10046 z m 3.54043,4.9466 0.36,-0.30979 0.85739,-0.68435 0.91031,-0.74402 0.52509,-0.47793 0.42509,-0.44931 0.58386,-0.62838 0.31923,-0.32995 0.34155,-0.24088 0.16091,-0.0492 0.0735,0.002 0.0752,0.0294 0.0958,0.0903 8e-4,0.20337 -0.29695,0.41902 -0.62462,0.60822 -0.45662,0.3947 -1.15355,0.92815 -1.5703,1.13964 -0.63353,0.36577 -0.0908,-0.006 -0.0143,-0.05 0.0542,-0.13322 0.0575,-0.0769 z m 2.75453,-9.93543 0.0512,-0.0878 0.27938,-0.14674 0.33906,-0.0938 0.27692,3.4e-4 0.0597,0.0529 0.003,0.0563 -0.23984,0.24043 -0.20124,0.13074 -0.17015,0.0837 -0.28275,0.0904 -0.15508,-0.0415 -0.0211,-0.16261 0.0604,-0.1223 z m 7.27912,47.74679 0.18198,0.11339 0.24459,0.12093 0.15167,-0.0147 0.14787,-0.17275 0.0869,-0.15213 0.0684,-0.0833 0.24954,-0.17319 0.69322,-0.31285 0.78105,-0.26161 0.73105,-0.2473 1.93348,-0.73763 3.5102,-1.48776 4.8025,-2.1756 2.62702,-1.32739 0.95491,-0.56588 0.11678,-0.12568 -0.0286,-0.1 -0.37578,-0.42386 -1.01295,-0.87156 -0.73129,-0.50987 -0.12398,-0.0886 -0.27399,-0.0457 -0.73398,0.2927 -1.17044,0.64662 -1.93842,1.03177 -2.03088,0.99776 -1.88888,0.91578 -1.50782,0.76858 -1.08643,0.53988 -3.55514,1.58652 -1.80826,0.75271 -0.34198,0.13919 -0.32139,0.20013 -0.10585,0.11936 -0.026,0.13153 0.0711,0.14832 0.24211,0.268 0.2795,0.23185 0.67499,0.51325 0.51317,0.3591 z m 9.62264,-5.65757 0.0685,-0.0833 0.20584,-0.14797 0.12815,-0.0303 0.60121,-0.24516 1.35028,-0.66307 1.09736,-0.54619 0.70751,-0.26284 0.13953,0.0651 0.0177,0.10631 -0.0559,0.10506 -0.43184,0.33671 -0.75369,0.43514 -1.00536,0.47849 -0.56214,0.23717 -0.44199,0.1678 -0.63105,0.2187 -0.37521,0.0564 -0.10844,-0.11216 0.0496,-0.11598 z m -6.56552,6.41208 0.59075,-0.13716 2.21838,-0.69821 2.90067,-1.00477 2.93006,-1.08 1.23688,-0.48109 1.76917,-0.74472 4.52019,-1.98348 0.8789,-0.42006 0.0592,-0.0488 -0.0194,-0.13447 -0.1446,-0.14953 -0.24627,-0.14909 -0.15044,-0.0588 -0.45134,-0.17633 -0.54887,-0.29479 -0.58501,-0.3322 -1.7855,0.9435 -2.31781,1.2071 -4.08361,2.00814 -1.30996,0.58153 -2.44854,1.0059 -2.37546,0.90542 -1.09827,0.34281 -0.43444,0.10518 -0.32815,0.0875 -0.4966,0.19933 -0.0857,0.0786 -0.0186,0.0689 0.0302,0.12815 0.21812,0.1508 0.5278,0.13219 0.68996,0.009 0.35798,-0.061 z m 10.62004,-4.76246 0.0845,-0.005 0.12691,0.0432 0.0723,0.0747 -0.0167,0.0971 -0.0547,0.0315 -0.05,0.0143 -0.13784,-0.0369 -0.0706,-0.0465 -0.0488,-0.0592 0.0231,-0.0861 0.0719,-0.0269 z m -34.06759,-34.91653 0.26046,-0.17951 1.004,-0.78355 0.57046,-0.475 2.26003,-1.88738 4.26802,-3.45449 0.96662,-0.74741 3.05615,-2.2742 1.06662,-0.77602 0.41169,-0.29594 0.31124,-0.36903 0.11294,-0.28366 0.029,-0.17691 0.0394,-0.2849 -0.0518,-0.39244 -0.16352,-0.18232 -0.29705,0.0404 -0.17939,0.11814 -0.77677,0.52129 -1.66737,1.12286 -1.38968,0.94797 -2.85031,2.12623 -1.60724,1.27748 -1.908,1.53851 -1.86263,1.54143 -0.53601,0.48423 -0.7137,0.63052 -0.5037,0.36362 -0.12015,0.0694 -0.16508,0.16813 -0.15325,0.36519 -0.0389,0.38659 -0.0234,0.36305 0.0334,0.46136 0.10553,0.15753 0.0925,0.034 0.21722,-0.0526 0.20291,-0.1026 z m 12.18169,-5.38738 0.0651,-0.13952 -0.0113,-0.0954 -0.058,-0.0248 -0.12184,0.0412 -0.0483,0.0424 -0.026,0.13152 0.0206,0.0609 0.0488,0.0592 0.0953,-0.0114 0.0357,-0.0643 z m 15.03179,23.36194 1.67861,2.45337 2.17376,2.98309 1.14842,1.43415 0.42454,0.48309 0.97769,1.03755 1.03276,1.1077 0.86126,0.88633 1.80144,1.58144 1.31844,0.97189 0.85191,0.5422 0.80606,0.43758 0.74762,0.31113 0.33997,0.10955 0.38535,0.11249 0.54964,0.11957 0.38491,0.0108 0.33737,-0.12196 0.17477,-0.10091 0.2403,-0.13873 0.33985,-0.26904 0.0466,-0.0706 -0.0505,-0.0874 -0.70224,-0.3082 -0.5358,-0.17126 -0.51395,-0.18388 -1.11157,-0.5379 -1.1671,-0.70975 -1.12386,-0.83666 -0.50731,-0.44986 -1.26766,-1.16143 -2.22645,-2.1662 -0.45439,-0.50955 -0.64189,-0.80908 -1.33546,-1.632 -1.06643,-1.29216 -1.50574,-1.92694 -1.24561,-1.82952 -1.52107,-2.55889 -1.0847,-1.87874 -1.76115,-3.07565 -1.57458,-2.97949 -0.86071,-1.81872 -0.43942,-1.01335 -0.35574,-0.84321 -0.5231,-1.18351 -0.84102,-1.96118 -0.71533,-1.84441 -0.20485,-0.68274 0.002,-0.14706 -0.0119,-0.19707 -0.21838,-0.90796 -0.18716,-0.57644 -0.36972,-1.17011 -0.15779,-0.65166 -0.10688,-0.4626 -0.19471,-0.51383 -0.087,-0.22646 -0.0989,-0.42352 0.004,-0.11892 -0.038,-0.44412 -0.21713,-0.9815 -0.22636,-0.94703 -0.25262,-1.57269 -0.0336,-1.21853 0.13129,-0.73118 0.15155,-0.39335 0.0852,-0.18029 0.10709,-0.19289 0.075,-0.34921 -0.0354,-0.21261 -0.16429,-0.007 -0.11677,0.12567 -0.27386,0.33288 -0.48725,0.54346 -0.23186,0.2795 -0.32418,0.62409 -0.17205,0.71102 -0.0119,0.83702 0.0678,0.47059 0.15836,1.13194 0.23336,1.81683 0.11961,0.86304 0.32199,1.69283 0.40938,1.6424 0.51228,1.5684 0.28177,0.74029 0.44156,1.1432 0.29483,0.86381 0.26961,0.82012 0.4222,1.00875 0.51679,1.17258 0.5866,1.39442 0.58155,1.30996 1.62885,3.22485 2.02941,3.59073 2.20001,3.60872 1.10101,1.67998 z m -3.3231,-9.89272 0.46216,-0.20856 3.6407,-2.04371 5.09008,-2.93876 4.47502,-2.64191 1.21998,-0.76262 0.57724,-0.36238 -1.04237,-2.20903 -0.42004,-0.8789 -0.66724,-1.23137 -0.13368,-0.15584 -0.16259,0.0211 -0.92136,0.37174 -2.36195,1.13064 -4.26885,2.21703 -4.16669,2.31827 -1.53845,0.91735 -2.16228,1.35034 0.54494,1.17089 0.53402,1.17721 0.4937,1.25873 0.37682,1.00581 0.14088,0.37014 0.0786,0.0857 0.21137,0.0381 z m 3.31298,5.86437 0.0908,0.006 0.78522,-0.38053 2.83702,-1.59427 3.69027,-2.1597 2.93026,-1.73548 4.15487,-2.51533 0.54739,-0.38885 0.3457,-0.35979 -1.3231,-2.36735 -0.53142,-0.94568 -0.79754,-1.33091 -0.13997,-0.16676 -0.54491,0.24178 -4.39146,2.43347 -5.76899,3.3016 -4.30487,2.55824 -0.47723,0.33378 0.30947,0.63691 2.03233,3.54533 0.55619,0.88768 z m 3.27535,5.14334 0.1017,-5e-4 0.57767,-0.2607 1.55444,-0.8392 3.05841,-1.76579 3.44026,-2.08818 1.61153,-1.0178 2.6769,-1.72028 2.39752,-1.57353 0.15415,-0.16183 -0.15934,-0.30122 -0.62174,-0.84985 -0.77431,-1.03845 -0.67219,-0.93724 -0.63603,-0.89984 -7.80989,4.50904 -7.79266,4.51366 1.35665,2.17321 0.56082,0.87045 0.83614,1.22123 0.13999,0.16676 z m 2.11024,2.77216 0.69065,0.8683 0.32704,0.36462 0.0815,0.0404 0.43107,-0.16149 1.62459,-0.89426 2.32951,-1.38864 1.44475,-0.87782 2.15136,-1.34403 1.77952,-1.2313 1.97693,-1.52005 1.29385,-1.03828 1.07877,-0.85585 0.58647,-0.39686 0.142,-0.082 0.10415,-0.14751 -0.013,-0.12353 -0.14844,-0.30754 -0.55867,-0.74062 -0.45315,-0.58308 -0.88277,-1.15061 -1.51028,0.91566 -1.69891,1.06824 -2.18998,1.45373 -1.16369,0.75923 -3.37134,2.10666 -1.68045,0.99932 -2.98027,1.74979 -0.90491,0.55157 0.0476,0.13276 0.26903,0.33985 0.475,0.57048 0.72218,0.92293 z m -6.53734,-22.39698 4.19778,-2.36534 2.86856,-1.53965 1.95104,-1.00992 1.03475,-0.55372 0.66168,-0.36746 -0.6366,-1.38012 -0.26702,-0.58861 -0.37558,-1.07934 -0.0703,-0.32353 -0.0485,-0.33613 -0.12197,-0.33738 -0.11012,-0.14031 -0.17399,-0.0744 -0.19245,-0.006 -0.40629,0.1035 -0.36384,0.1518 -2.05272,1.01038 -7.55878,3.9854 -2.51566,1.39416 -1.29352,0.76138 -0.91876,0.60326 -0.22261,0.24504 -0.0167,0.0971 0.0274,0.17353 0.27884,0.78566 0.22118,0.48399 0.46465,1.05705 0.3259,0.81674 0.15688,0.4483 0.22072,0.3823 0.26306,0.052 0.4609,-0.13502 0.71968,-0.3427 1.68382,-0.94302 1.80858,-1.02962 z m 1.25178,-3.81026 0.67553,-0.41915 0.93476,-0.52512 0.50753,-0.20563 0.16599,0.0352 0.0458,0.10461 -0.002,0.0736 -0.0247,0.058 -0.26801,0.24212 -0.83138,0.55281 -0.91121,0.54066 -1.07675,0.6071 -0.78522,0.38051 -0.23613,0.0199 -0.0534,-0.042 -0.0101,-0.0672 0.13524,-0.19459 0.70323,-0.52252 1.02969,-0.63818 z m -1.21844,-1.00051 0.0874,-0.0504 0.1706,0.018 0.0425,0.0484 0.0315,0.0546 -0.026,0.13153 -0.0547,0.0316 -0.0655,0.0378 -0.17061,-0.018 -0.0752,-0.0294 -0.0534,-0.042 0.026,-0.13154 0.0874,-0.0505 z m 1.39272,-0.61476 0.0937,-0.0395 0.16429,0.007 0.0425,0.0483 0.0378,0.0655 -0.0323,0.12061 -0.0483,0.0424 -0.0719,0.0269 -0.16429,-0.007 -0.0815,-0.0403 -0.0533,-0.042 0.0323,-0.12061 0.0811,-0.0614 z m 2.70892,-0.1513 0.18692,-0.18074 0.35416,-0.21904 0.26721,-0.0669 0.14122,0.0932 0.0131,0.12354 -0.0324,0.1206 -0.37093,0.3161 -0.49615,0.30102 -0.30921,0.12026 -0.13446,0.0194 -0.0298,-0.0265 -0.005,-0.0845 0.23478,-0.32487 0.18062,-0.19167 z m 5.5074,31.40953 0.52625,0.48263 0.64683,0.51496 0.30427,0.17386 0.0798,0.0123 0.32183,-0.0985 1.86198,-0.98761 2.46226,-1.43617 2.14043,-1.33773 0.5957,-0.43131 1.02585,-0.79617 1.12584,-0.82476 1.19432,-0.90799 1.27201,-1.02568 1.14261,-0.92184 0.70155,-0.55067 0.20415,-0.17613 0.25032,-0.34841 0.015,-0.12522 -0.0539,-0.14369 -0.44685,-0.57215 -0.3081,-0.33187 -0.33163,-0.34738 -0.55992,-0.66708 -0.14336,-0.22308 -0.11812,-0.17938 -0.26521,-0.18186 -0.30798,0.0467 -0.40707,0.27871 -0.24616,0.2295 -0.47216,0.41824 -2.81923,2.07917 -2.72137,1.92072 -0.84692,0.57634 -2.61011,1.60891 -1.33722,0.78661 -2.44213,1.3954 -0.78644,0.45405 -0.0484,0.0424 0.0446,0.17815 0.51576,0.59062 0.84065,0.82541 z m 2.72139,-1.9207 0.0793,-0.0896 0.20754,-0.11983 0.0845,-0.005 0.21554,-0.0807 1.4452,-0.77614 0.99398,-0.57388 0.78183,-0.43683 1.11122,-0.59786 0.65583,-0.2767 0.20968,0.0101 0.0395,0.0937 -0.0185,0.069 -0.10584,0.11937 -0.94523,0.6331 -2.16105,1.27682 -1.2049,0.63738 -0.44031,0.19596 -0.65751,0.24854 -0.30337,0.0295 -0.10337,-0.0277 -0.0147,-0.15169 0.13061,-0.17735 z m -15.37978,-28.78272 1.73382,-0.95733 3.82055,-2.06015 1.49689,-0.76229 3.0984,-1.57039 1.33259,-0.76938 0.19785,-0.18705 0.0227,-0.18783 -0.0821,-0.142 -0.0631,-0.10923 -0.11474,-0.12308 -0.12522,-0.0151 -0.15462,0.0601 -0.10293,0.0739 -0.61922,0.41577 -1.30152,0.72231 -0.73689,0.33807 -0.23277,0.0761 -0.3063,0.0749 0.0369,-0.13783 0.37723,-0.30518 0.25416,-0.19042 0.4743,-0.28841 0.14999,-0.0429 0.13277,-0.0476 0.44446,-0.31486 0.23523,-0.2232 0.51417,-0.47162 0.44907,-0.33209 0.12477,-0.0866 0.16046,-0.15091 0.04,-0.18322 -0.0434,-0.25167 -0.0665,-0.16553 -0.17917,-0.53737 -0.14132,-0.47183 -0.0635,-0.21091 -0.19167,-0.18062 -0.17229,-0.0462 -0.33153,0.0311 -0.58859,0.26701 -0.38692,0.23795 -0.31508,0.21104 -0.31462,0.31272 0.002,0.12983 0.10338,0.0277 0.3206,-0.0249 0.34998,-0.10011 0.28445,-0.0623 0.45044,-0.027 0.10968,0.0386 0.0442,0.0765 -0.0634,0.16767 -0.20754,0.11982 -0.28445,0.0623 -0.13152,-0.026 -0.12523,-0.0151 -0.44244,0.0661 -0.22814,0.0589 -0.27184,0.0841 -0.26136,-0.0239 -0.12398,-0.0886 -0.0551,-0.0702 -0.0631,-0.10923 -0.27398,-0.0457 -1.58517,0.60936 -3.04932,1.35273 -1.57842,0.72197 -2.7081,1.38876 -1.32628,0.78029 -2.51982,1.51308 0.21544,0.95335 0.0972,0.39536 0.25529,0.77012 0.11521,0.22477 0.25394,0.46507 1.03352,-0.48019 0.93983,-0.44066 0.6789,-0.36283 0.25753,-0.13413 0.43107,-0.1615 0.30967,-0.0186 0.13198,0.1277 -0.015,0.12522 -0.0294,0.0752 -0.22138,0.1715 -0.70538,0.39269 -0.83059,0.3776 -0.67137,0.30023 -0.8663,0.4419 -0.3243,0.24549 -0.10416,0.14752 0.007,0.2143 0.0992,0.14662 0.0849,0.0966 0.28321,0.0113 1.34567,-0.64586 2.40011,-1.34201 z m -1.95146,-2.95121 0.14492,-0.12736 1.22461,-0.77985 0.87844,-0.52174 1.1423,-0.64493 0.96629,-0.4705 0.37182,-0.11274 0.13614,0.009 0.11431,0.0214 -0.0104,0.108 -0.68938,0.47084 -1.27798,0.73785 -1.78043,1.02793 -0.61,0.3813 -0.134,0.12106 -0.24199,0.11059 -0.18322,-0.0399 -0.0774,-0.15922 0.026,-0.13154 z m 4.37789,-0.21192 0.0529,-0.0596 0.15,-0.0429 0.0862,0.0231 0.0832,0.0685 0.0694,0.12015 -0.0386,0.10969 -0.15,0.0429 -0.097,-0.0168 -0.10969,-0.0386 -0.0803,-0.11384 0.0341,-0.0925 z m 0.74152,-0.3553 1.4166,-0.87612 2.0552,-1.15745 0.83983,-0.41206 0.0908,0.006 -0.0168,0.0971 -0.29571,0.34549 -0.23061,0.20597 -0.33523,0.2518 -1.00614,0.65372 -1.12507,0.64956 -0.85998,0.45281 -0.19369,0.0682 -0.11261,0.006 -0.17229,-0.0462 -0.11307,-0.0949 -5e-4,-0.10168 0.0592,-0.0488 z m 0.45973,-2.50825 0.14492,-0.12737 0.30922,-0.12027 0.24414,0.0192 0.0882,0.15292 -0.0479,0.14414 -0.0622,0.0941 -0.2277,0.16058 -0.27646,0.10135 -0.25966,0.004 -0.0925,-0.034 -0.0425,-0.0483 0.0945,-0.21475 0.12769,-0.13198 z m 1.75409,-0.6195 0.0685,-0.0832 0.19199,-0.0963 0.19076,-0.0227 0.15676,0.0697 0.0551,0.0702 0.0101,0.0672 -0.10877,0.16474 -0.2357,0.12152 -0.23445,0.048 -0.0925,-0.034 -0.0596,-0.053 -0.004,-0.15799 0.0622,-0.0941 z m 9.72841,39.88088 0.48333,0.33263 0.97296,0.67621 0.477,0.32171 0.74176,0.40189 0.13615,0.009 0.97384,-0.53312 2.64289,-1.62782 2.9512,-1.95147 2.69953,-1.90811 1.03679,-0.80247 1.30645,-1.01643 1.28001,-0.9866 0.55031,-0.43423 0.50785,-0.48255 0.15078,-0.21812 0.007,-0.0626 -0.0476,-0.13276 -0.33963,-0.38647 -0.23874,-0.2117 -0.57162,-0.48555 -0.559,-0.46371 -0.26688,-0.21001 -0.52196,-0.22295 -0.50674,0.0303 -0.51506,0.26825 -0.25708,0.23581 -0.60448,0.56745 -0.84015,0.68896 -0.91662,0.73309 -0.87924,0.69697 -0.37261,0.28795 -0.66922,0.43007 -0.1983,0.0854 -0.16554,0.0664 -0.37092,0.31611 -0.13524,0.19459 -0.12139,0.1429 -0.47847,0.40731 -1.60522,1.02873 -2.16104,1.27681 -1.46829,0.86228 -1.75983,1.08886 -0.56754,0.42962 -0.11801,0.19921 0.0429,0.14999 0.16644,0.13692 0.12861,0.0714 z m 5.60316,-1.54557 0.0794,-0.0896 0.18107,-0.09 0.19075,-0.0227 0.15676,0.0697 0.0551,0.0702 0.0206,0.0609 -0.1197,0.17106 -0.22476,0.11521 -0.24539,0.0543 -0.0925,-0.0341 -0.0596,-0.0529 -0.004,-0.15799 0.0622,-0.0941 z m 0.90442,-2.06595 0.3197,-0.22825 0.58814,-0.36871 0.45584,-0.21948 0.30798,-0.0468 0.066,0.0638 -0.0341,0.0925 -0.51585,0.44347 -0.4243,0.27409 -0.45246,0.27579 -0.64322,0.29854 -0.21891,0.0244 -0.005,-0.0845 0.2054,-0.24966 0.35076,-0.27534 z m 0.54326,1.14275 0.15922,-0.0774 0.20968,0.0101 0.0711,0.1483 -0.12094,0.2446 -0.14494,0.12736 -0.13568,0.0929 -0.20338,6.1e-4 -0.0849,-0.0966 -0.0206,-0.061 -5e-4,-0.10169 0.10247,-0.17566 0.16846,-0.11183 z m 0.9406,-0.61587 1.03632,-0.90417 1.3783,-1.04335 0.59447,-0.35777 0.11722,-0.0239 0.10969,0.0386 0.0303,0.12815 -0.0685,0.0833 -0.53432,0.51239 -2.16047,1.75708 -0.44616,0.28671 -0.12352,0.0131 -0.1223,-0.0605 -0.0257,-0.14538 0.1071,-0.19289 0.10753,-0.0913 z m 0.84858,-1.96089 0.15292,-0.0883 0.24706,-0.0262 0.0534,0.042 0.0101,0.0672 -0.14616,0.2009 -0.15292,0.0883 -0.142,0.0819 -0.24706,0.0262 -0.0534,-0.042 -0.0101,-0.0672 0.14616,-0.2009 0.142,-0.0819 z m 2.66837,-0.82695 0.0386,-0.10968 0.17139,-0.1572 0.22645,-0.087 0.19875,0.0163 0.0551,0.0702 0.0395,0.0937 -0.0117,0.18153 -0.10879,0.16475 -0.1903,0.12444 -0.11722,0.0239 -0.089,0.0223 -0.13784,-0.0369 -0.0786,-0.0857 -0.0194,-0.13445 0.0231,-0.0861 z m -29.09156,-31.84737 2.76102,-1.44845 3.35931,-1.64821 1.43812,-0.61184 1.83472,-0.78256 1.72041,-0.80396 0.64784,-0.31576 0.78645,-0.45406 0.24278,-0.2858 0.0491,-0.21768 -0.0628,-0.38614 -0.13458,-0.35922 -0.0887,-0.2546 -0.051,-0.56767 0.0491,-0.21767 0.0399,-0.18321 -0.0317,-0.43321 -0.0711,-0.1483 -0.0631,-0.10924 -0.10845,-0.11215 -0.23152,0.002 -0.26845,0.14043 -0.67598,0.31746 -1.17135,0.44326 -1.29488,0.45632 -1.09782,0.44449 -1.04781,0.43019 -1.11504,0.43988 -0.57937,0.23254 -0.48692,0.26657 -0.16046,0.15089 -0.0404,0.0815 -0.0777,0.11768 -0.418,0.28502 -0.56214,0.23718 -0.55166,0.12917 -0.19875,-0.0163 -0.16431,-0.007 -0.52858,0.043 -0.29075,0.0514 -0.38444,0.0909 -0.26047,0.17949 -0.1117,0.21013 -0.0416,0.15508 -0.0524,0.16136 -0.10081,0.20382 -0.13569,0.0929 -0.24706,0.0262 -0.18614,0.006 -0.15169,0.0147 -0.37352,0.0846 -0.6886,0.29562 -0.63353,0.36577 -0.51799,0.31363 -0.52553,0.37624 -0.22263,0.24504 -0.13186,0.25089 -0.0503,0.29121 0.0384,0.54582 0.10856,0.49074 0.18054,0.84243 0.0867,0.50336 0.0404,0.29706 0.13874,0.2403 0.18951,0.0508 0.46722,-0.1241 1.23013,-0.5937 0.98013,-0.52219 z m -2.78723,-1.62398 0.0886,-0.12399 0.43478,-0.38209 0.5583,-0.39516 0.50876,-0.27917 0.15,-0.0429 0.16261,-0.0211 0.0975,0.11847 -0.19908,0.26057 -0.46124,0.41194 -0.33523,0.2518 -0.42893,0.29133 -0.41045,0.22241 -0.1563,0.0319 -0.0189,-0.0328 -0.0378,-0.0655 0.007,-0.1643 0.0404,-0.0815 z m 2.69664,-0.45005 0.0979,-0.15844 0.47677,-0.43547 0.61755,-0.44392 0.49782,-0.27286 0.11892,0.004 0.0833,0.0685 8e-4,0.20337 -0.20832,0.29504 -0.40201,0.36317 -0.28062,0.22028 -0.27599,0.20303 -0.4323,0.23502 -0.2063,0.0463 -0.0925,-0.034 -0.0476,-0.13276 0.0524,-0.16137 z m 2.5274,-0.16301 0.8986,-0.5625 0.84275,-0.45743 0.31553,-0.10935 0.0689,0.0184 0.0189,0.0328 -0.0651,0.13953 -0.29909,0.28918 -0.62215,0.46115 -0.65076,0.36115 -0.22183,0.0699 -0.19076,0.0227 -0.22059,-0.004 -0.0833,-0.0685 0.0949,-0.11306 0.11384,-0.0803 z m 0.70567,-2.08227 0.18861,-0.15258 0.94567,-0.53143 1.22552,-0.57646 1.01505,-0.41128 0.23445,-0.048 0.21429,-0.007 0.11014,0.14032 -0.0445,0.20044 -0.0571,0.17859 -0.2277,0.16059 -0.24245,0.009 -0.15168,0.0147 -0.38906,0.10811 -0.93521,0.42344 -1.11121,0.59787 -0.26846,0.14043 -0.40459,0.13164 -0.18153,-0.0117 -0.0597,-0.0529 0.0306,-0.14875 0.10878,-0.16476 z m 5.10372,-2.33494 0.20629,-0.0463 0.48783,-0.0632 0.20968,0.01 0.11891,0.004 0.18491,0.068 0.13028,0.0995 0.0539,0.14369 -0.0193,0.24412 -0.25663,0.3375 -0.2277,0.16059 -0.19199,0.0963 -0.32184,0.0984 -0.19874,-0.0163 -0.0303,-0.12815 0.0668,-0.11137 0.073,-0.10045 -0.0631,-0.10924 -0.15045,-0.0588 -0.19582,-0.0617 -0.20721,-0.15709 -0.0227,-0.19075 0.17138,-0.1572 0.18277,-0.0618 z m 14.18056,47.21388 0.37905,0.10157 0.54335,0.10865 0.34413,-0.009 0.27014,-0.11227 0.14032,-0.11014 0.86708,-0.6171 1.92658,-1.22885 1.67538,-1.08378 3.44014,-2.46677 2.24955,-1.77939 1.22032,-1.03952 0.88171,-0.84403 0.36878,-0.44594 0.1117,-0.21013 -0.0101,-0.0672 -0.0396,-0.0937 -0.21982,-0.17894 -0.13953,-0.0651 -0.16136,-0.0524 -0.31228,-0.21293 -0.10844,-0.11215 -0.0596,-0.0529 -0.11767,-0.0777 -0.26892,0.0387 -0.79399,0.51667 -1.59969,1.21486 -1.25816,0.97398 -1.46231,1.1501 -2.31385,1.7437 -1.8606,1.29267 -1.73168,1.08717 -0.92845,0.53604 -1.77581,1.01071 -0.58983,0.34055 -0.0484,0.0424 -0.0357,0.0643 0.0757,0.13108 0.32781,0.18941 0.6001,0.20695 0.4135,0.1108 z m -25.68168,-43.57387 0.1777,-0.14628 0.33646,-0.32534 0.18693,-0.18075 0.63015,-0.42206 1.46075,-0.79967 2.78669,-1.30307 3.4636,-1.41714 1.92255,-0.73133 3.0519,-1.12121 1.31628,-0.57062 0.23399,-0.14967 0.1117,-0.21012 0.0289,-0.17691 0.0146,-0.22691 -0.022,-0.36598 -0.13875,-0.2403 -0.20381,-0.10078 -0.14538,0.0257 -0.76259,0.19269 -1.33102,0.41895 -0.57475,0.21531 -1.31796,0.54247 -2.41117,0.96973 -1.31796,0.54247 -3.17869,1.45656 -1.34397,0.67399 -2.96564,1.52288 -0.17958,0.77363 -0.0629,0.26936 -0.0293,0.45381 0.0421,0.32522 0.0976,0.11846 0.0798,0.0121 0.0437,-0.0253 z m 27.84065,20.04464 1.39944,1.94461 0.87477,1.11155 0.68434,0.85739 0.76801,1.02753 0.42332,0.55662 1.20304,1.40263 1.38793,1.47064 1.29458,1.23326 0.49469,0.42802 0.90743,0.71403 0.86203,0.7111 0.35642,0.2894 0.81743,0.53296 0.8107,0.42035 0.72239,0.26744 0.27397,0.0457 0.22522,-0.0135 0.64828,-0.21411 0.34492,-0.18459 0.42599,-0.24592 0.22893,-0.23412 0.002,-0.14708 -0.0505,-0.0874 -0.0912,-0.10753 -0.35719,-0.11418 -0.22521,0.0135 -0.28615,0.0341 -0.56349,-0.0679 -0.62533,-0.25065 -0.80144,-0.45482 -0.50055,-0.33724 -0.69054,-0.48973 -1.24322,-0.9425 -1.17644,-1.05388 -1.26981,-1.29125 -0.72636,-0.80402 -1.65234,-1.82771 -1.51915,-1.77356 -0.61373,-0.81077 -0.75079,-1.02292 -1.21531,-1.70138 -1.62737,-2.54121 -1.46599,-2.48874 -0.96488,-1.6712 -1.49844,-2.74672 -1.1668,-2.39933 -1.02648,-2.50947 -0.55093,-1.45872 -0.34189,-0.8949 -0.1955,-0.3386 -0.0613,-0.0811 -0.14257,-0.3983 -0.0652,-0.23906 -0.23391,-0.88444 -0.4543,-1.54363 -0.23222,-0.85627 -0.50408,-2.18482 -0.18899,-0.98319 -0.10948,-0.69412 -0.13267,-0.98656 -0.0204,-0.71642 0.11281,-0.66225 0.10157,-0.37905 0.1322,-0.5278 0.0553,-0.58534 -0.0199,-0.23614 -0.0252,-0.0437 -0.0815,-0.0403 -0.22521,0.0135 -0.45753,0.19133 -0.60493,0.46576 -0.294,0.37365 -0.0727,0.20213 0.0332,0.0828 0.0349,0.11092 0.035,0.48952 -0.009,0.31136 -0.004,0.39582 0.12435,1.2244 0.0888,0.6332 0.20757,1.29285 0.12884,0.82858 0.13593,0.66427 0.21623,0.77812 0.26375,0.91089 0.2865,1.10165 0.2196,0.83442 0.7221,1.95702 0.71151,1.68641 0.24977,0.58399 0.37681,1.00581 0.0607,0.25629 0.10305,0.30461 0.69967,1.48936 0.48604,0.94274 0.93886,1.80274 0.24515,0.60121 0.10142,0.27645 1.11499,2.00689 1.70057,2.81935 1.68581,2.66767 0.60788,0.90153 z m -3.06194,-9.21336 0.25461,-0.0888 2.02119,-1.06499 1.44982,-0.79336 3.04795,-1.65778 1.69351,-0.87581 1.15997,-0.53863 -0.84933,-1.72335 -0.7026,-1.44396 -0.41499,-0.79445 -0.25732,-0.52138 -1.48811,0.62615 -0.76507,0.33976 -2.52578,1.22524 -1.34398,0.67399 -2.51148,1.27525 -0.94444,0.45788 -0.0983,0.0568 -0.0869,0.15214 0.16993,0.57182 0.3982,0.89152 0.57186,1.24274 0.76814,1.40613 0.35901,0.52092 0.0941,0.0621 z m 2.16016,3.79194 0.99639,1.72582 0.57217,-0.44684 0.82168,-0.62005 1.47539,-1.02657 1.84968,-1.28638 3.53968,-2.59707 0.47847,-0.40732 -0.18502,-0.4466 -0.70676,-1.32505 -0.90857,-1.67459 -1.04613,0.45835 -1.00074,0.46127 -2.69718,1.38244 -2.7295,1.50306 -1.48843,0.90305 -0.5537,0.37792 -0.0793,0.0895 -0.0306,0.14876 0.13458,0.35921 0.1715,0.22139 0.51959,0.74861 0.86691,1.45107 z m 3.1606,5.02026 0.19211,0.28231 0.3804,0.40662 0.35134,0.20494 0.29245,-0.0233 0.10584,-0.11937 0.85571,-0.71249 2.50246,-1.89628 1.31278,-1.00552 2.0794,-1.69571 0.4377,-0.42747 0.64601,-0.72251 -0.96442,-1.56953 -0.40484,-0.62553 -0.61249,-0.88431 -0.12569,-0.11677 -0.16553,0.0665 -1.0826,0.69787 -0.74693,0.54774 -1.84169,1.32545 -1.87783,1.28807 -1.60645,1.10224 -0.93093,0.68311 -0.65954,0.4973 0.69741,0.98092 0.65496,0.93261 0.51036,0.78308 z m -7.91134,-14.40914 0.10168,-5e-4 0.4983,-0.17118 1.30827,-0.6097 1.28306,-0.65339 2.58163,-1.3303 1.80274,-0.93886 1.23936,-0.62816 0.57767,-0.26071 0.10462,-0.0458 0.0823,-0.13491 -0.11149,-0.44536 -0.30654,-0.68229 -0.21655,-0.50122 -0.30575,-0.85751 -0.0307,-0.22983 -0.0244,-0.21892 -0.14167,-0.19492 -0.16137,-0.0525 -0.3769,0.0283 -0.83104,0.27591 -0.60584,0.26239 -1.46164,0.5963 -1.11212,0.39449 -0.48737,0.16487 -1.39904,0.60385 -0.6869,0.32376 -1.39398,0.6883 -0.90537,0.44989 -0.28568,0.13582 -0.24954,0.1732 -0.0823,0.1349 0.006,0.28783 0.26577,0.66214 0.24179,0.5449 0.39358,0.90875 0.18885,0.6046 0.0926,0.41258 0.13244,0.22939 0.15044,0.0588 0.12523,0.0151 z m 0.92228,-4.02783 0.77846,-0.49312 2.46611,-1.27817 0.65752,-0.24854 0.36721,-0.0955 0.30507,-0.002 0.0596,0.053 -0.10417,0.14752 -0.52261,0.33085 -0.42306,0.20057 -1.13813,0.52602 -1.14398,0.61678 -0.55245,0.30439 -0.51845,0.21195 -0.20167,0.0291 -0.0471,-0.0311 -0.066,-0.0639 0.0134,-0.15337 0.0702,-0.055 z m 5.36633,-2.38461 0.0575,-0.0769 0.192,-0.0963 0.23444,-0.048 0.18322,0.0399 0.0533,0.042 0.0333,0.0828 -0.0197,0.14246 -0.10416,0.14751 -0.18108,0.09 -0.11722,0.024 -0.10631,0.0177 -0.16598,-0.0353 -0.10214,-0.10124 0.002,-0.14707 0.0404,-0.0815 z m 4.24287,24.27512 0.30225,0.42261 0.50654,0.62508 0.11307,0.0949 0.1126,-0.006 0.62722,-0.37668 0.90739,-0.69866 1.01155,-0.84616 0.45954,-0.44009 0.59986,-0.55022 0.69523,-0.5616 0.57677,-0.46407 1.31356,-1.18073 1.20726,-1.16306 0.75817,-0.83096 0.0697,-0.15675 -0.0287,-0.1 -0.17782,-0.2323 -0.11767,-0.0777 -0.16014,-0.12601 -0.51577,-0.59061 -0.27702,-0.37893 -0.27072,-0.36799 -0.43085,-0.49401 -0.0941,-0.0621 -0.0828,0.0332 -0.36,0.30978 -0.22432,0.2169 -0.27723,0.27658 -0.93216,0.75664 -0.51001,0.3527 -1.12583,0.82477 -1.02417,0.82432 -1.07246,0.86677 -1.26447,0.96306 -0.61123,0.45486 -0.72338,0.56327 -0.21631,0.25597 -0.026,0.13153 0.0727,0.17645 0.13366,0.15585 0.41531,0.51754 0.64066,0.88261 z m -12.13098,-22.57544 0.23907,-0.0652 0.99781,-0.41589 0.59323,-0.28423 1.64396,-0.75982 4.13327,-1.74553 1.15581,-0.41972 0.32183,-0.0984 0.47307,-0.21486 0.0747,-0.0723 0.0104,-0.10799 -0.1338,-0.53445 -0.13288,-0.33107 -0.13458,-0.35922 -0.16409,-0.66258 -6.1e-4,-0.20337 0.013,-0.25506 -0.0829,-0.34537 -0.19629,-0.16339 -0.34874,0.0266 -0.22646,0.0871 -0.74197,0.25361 -1.12349,0.29911 -1.16257,0.30711 -0.9092,0.29191 -0.72012,0.241 -0.52982,0.11656 -0.57183,0.16994 -2.66285,1.01308 -1.1398,0.49788 -0.0937,0.0395 -0.076,0.14583 0.0363,0.41598 0.19347,0.58736 0.31714,0.95289 0.20485,0.68274 0.0921,0.31091 0.14888,0.40922 0.14628,0.17769 0.21137,0.0381 0.14538,-0.0257 z m 0.46917,-3.19822 0.63816,-0.383 1.46412,-0.74337 1.39903,-0.60383 0.79828,-0.257 0.36261,-0.0783 0.097,0.0167 0.10968,0.0386 -0.0197,0.14245 -0.51169,0.32455 -0.75583,0.3053 -0.56213,0.23717 -1.42844,0.67906 -0.63059,0.32039 -0.65707,0.35023 -0.60584,0.26239 -0.24075,0.0371 -0.0471,-0.0311 -0.0361,-0.0373 0.0214,-0.1143 0.25709,-0.2358 0.34784,-0.22995 z m 6.71841,-2.64095 0.12184,-0.0412 0.19415,0.0336 0.0378,0.0655 0.005,0.0845 -0.0714,0.1286 -0.1483,0.0711 -0.17691,-0.0289 -0.077,-0.0575 -0.0723,-0.0748 0.0542,-0.13322 0.13276,-0.0476 z m 7.78539,31.79833 0.50778,0.55155 0.5796,0.52463 0.25889,0.17093 0.0735,0.002 0.11554,-0.0521 0.60031,-0.44853 1.62231,-1.40269 1.7248,-1.57836 1.12156,-1.08446 1.27065,-1.33073 1.31095,-1.41225 -0.40314,-0.59739 -0.38716,-0.51923 -0.3535,-0.33477 -0.14921,-0.13232 -0.31149,-0.38815 -0.12443,-0.19031 -0.11813,-0.17938 -0.17735,-0.13063 -0.108,-0.0105 -0.05,0.0142 -0.55369,0.37794 -1.7677,1.42837 -0.53432,0.51238 -0.25538,0.26396 -0.74185,0.6322 -0.35078,0.27534 -0.34615,0.25812 -0.50448,0.53884 -0.0961,0.1866 -0.0773,0.21936 -0.22138,0.17151 -0.20337,6.1e-4 -0.19707,0.0118 -0.32937,0.16104 -0.14786,0.17275 -0.16507,0.16813 -0.51293,0.39808 -0.27768,0.17489 -0.24493,0.15597 -0.39909,0.31779 -0.25831,0.30934 -0.0974,0.26012 0.0286,0.1 0.32871,0.39277 0.92139,1.04095 z m 3.46636,-3.2538 0.0404,-0.0815 0.21508,-0.18243 0.27938,-0.14674 0.2626,-0.0496 0.0861,0.0231 0.0298,0.0265 0.0114,0.0954 -0.0679,0.18491 -0.21924,0.30134 -0.24785,0.20135 -0.12352,0.013 -0.0735,-0.002 -0.1223,-0.0604 -0.0946,-0.16384 0.0243,-0.15968 z m -0.98102,5.59094 0.22736,0.11632 0.37364,0.29401 0.0912,0.10754 0.0976,0.11847 0.43918,0.25617 0.29459,0.10664 0.66902,0.22542 0.94893,-0.8537 0.91616,-0.8348 2.02005,-2.02555 1.83728,-1.96371 0.96019,-1.13692 0.35449,-0.49594 0.0541,-0.13322 0.007,-0.0626 -0.0727,-0.17645 -0.27535,-0.35077 -0.35348,-0.33477 -0.38794,-0.34403 -0.52579,-0.38094 -0.29751,-0.0612 -0.17184,0.0555 -0.29154,0.22658 -0.24447,0.25764 -0.99172,1.08232 -2.09019,2.0806 -0.93801,0.84741 -0.51417,0.47162 -0.78508,0.75912 -0.15247,0.18996 -0.1214,0.1429 -0.52847,0.42163 -0.32137,0.20011 -0.37139,0.21442 -0.42723,0.31948 -0.0508,0.18953 0.0694,0.12014 0.24336,0.19447 0.30889,0.15664 z m 4.5929,-3.2197 0.82079,-0.82342 0.71707,-0.57421 0.20462,-0.0744 0.0925,0.034 0.0298,0.0265 0.0349,0.11092 -0.0583,0.25213 -0.23016,0.30766 -0.41756,0.3867 -0.29784,0.21566 -0.41169,0.29594 -0.36676,0.19718 -0.14076,0.008 -0.0253,-0.0437 -0.0269,-0.0719 0.0289,-0.1769 0.0466,-0.0706 z m 2.0214,-1.72049 0.0886,-0.12398 0.32094,-0.30181 0.37891,-0.27702 0.27938,-0.14673 0.058,0.0247 0.0101,0.0672 -0.10833,0.26644 -0.20662,0.32319 -0.2554,0.26396 -0.12476,0.0866 -0.0874,0.0505 -0.18613,0.006 -0.13953,-0.0651 -0.0631,-0.10923 0.0357,-0.0643 z m -25.56567,-27.70796 0.8869,-0.38098 3.94386,-1.41772 0.88905,-0.25114 0.32352,-0.0702 1.07011,-0.34112 0.56845,-0.22624 1.16335,-0.48233 0.7449,-0.299 0.20462,-0.0744 0.22937,-0.13243 0.10709,-0.1929 -0.002,-0.30506 -0.0307,-0.22983 -0.083,-0.72396 -0.0864,-0.78026 -0.0404,-0.29707 -0.11904,-0.38275 -0.19629,-0.16339 -0.28613,0.0341 -0.192,0.0963 -0.14369,0.0538 -0.62688,0.0998 -0.38784,0.0346 -0.44411,0.038 -0.83905,0.23684 -0.34492,0.18457 -0.55414,0.27624 -1.43856,0.51015 -0.62522,0.12794 -0.76258,0.19269 -2.65575,0.8488 -0.66674,0.283 -0.14831,0.0711 -0.1697,0.18536 -0.036,0.3412 0.067,0.64581 0.0867,0.50337 0.15914,0.95671 0.23052,0.82812 0.13706,0.21216 0.0672,-0.01 z m 2.04032,-1.68772 1.88595,-0.8704 3.23748,-1.607 0.90029,-0.53435 0.57722,-0.36239 0.43568,-0.17872 0.14245,0.0197 0.0378,0.0655 0.0269,0.0719 -0.16169,0.22444 -0.58769,0.47037 -1.39814,0.80722 -1.89519,0.90485 -1.08058,0.44912 -1.01504,0.41127 -1.4995,0.53076 -0.22983,0.0307 -0.0408,-0.0201 0.0185,-0.0689 0.2777,-0.17489 0.36845,-0.16904 z m 0.37472,-1.57079 1.38305,-0.68199 1.44521,-0.77614 1.32505,-0.70675 0.74952,-0.31623 0.17229,0.0462 0.0568,0.0983 0.0442,0.0764 -0.12432,0.18829 -0.83306,0.52465 -1.44059,0.75891 -1.00828,0.52388 -1.44397,0.7026 -0.89321,0.37006 -0.38613,0.0627 -0.15968,-0.0243 -0.0534,-0.042 -0.0425,-0.0484 0.0432,-0.12691 0.44616,-0.28671 0.71967,-0.34269 z m 20.09685,37.98713 0.38197,0.0562 0.7164,-0.0205 0.63275,-0.19055 0.52892,-0.31993 0.19616,-0.21521 0.20077,-0.23242 0.58893,-0.54391 0.29155,-0.22658 0.28523,-0.2375 0.93926,-0.92094 1.66128,-1.78928 0.73124,-0.9028 0.35326,-0.42241 0.40031,-0.39132 0.18693,-0.18074 0.18647,-0.28243 -0.0526,-0.21722 -0.32488,-0.23478 -0.28535,-0.1411 -0.36688,-0.1814 -0.38704,-0.14064 -0.24076,0.037 -0.45076,0.30394 -1.00896,1.07769 -0.83126,0.93141 -0.5511,0.60945 -1.35802,1.38118 -1.38496,1.30934 -1.06277,0.934 -0.276,0.20304 -0.27307,0.15766 -0.21801,0.22781 -0.0432,0.12691 0.0412,0.12184 0.11937,0.10585 0.33073,0.14402 0.3429,0.0641 z m -22.87178,-39.31236 2.55451,-0.74666 2.7856,-0.85093 0.67642,-0.21578 0.69029,-0.26746 0.34831,-0.12826 1.00164,-0.2579 0.49244,-0.0804 0.4689,-0.0959 0.69535,-0.18301 0.44491,-0.21318 0.17724,-0.24796 0.002,-0.14707 -0.0303,-0.12815 -0.17737,-0.13063 -0.9664,0.0919 -1.73024,0.35815 -1.50669,0.31646 -1.92222,0.45442 -1.21257,0.32141 -0.95627,0.26083 -1.18272,0.34787 -0.45122,0.20226 -0.17769,0.14628 -0.14279,0.25721 -0.0818,0.23659 -0.0555,0.20674 -0.044,0.30214 0.0556,0.17184 0.14414,0.0478 0.1,-0.0286 z m 19.85487,19.83459 0.43637,0.68015 1.02782,1.40184 0.4027,0.49569 0.37117,0.44109 0.71926,0.9683 0.21903,0.35415 0.22995,0.34785 0.77555,0.96493 1.09246,1.16063 1.29627,1.26142 0.68806,0.63679 0.53084,0.46539 1.3752,1.07021 1.39998,1.01221 1.02757,0.64466 0.19583,0.0617 0.13446,-0.0193 0.38691,-0.23795 0.37555,-0.33334 0.2457,-0.33118 0.0214,-0.1143 -0.0457,-0.10462 -0.23243,-0.20077 -0.15044,-0.0588 -0.59841,-0.17881 -1.09265,-0.50513 -1.09694,-0.76482 -1.24245,-1.11773 -0.73389,-0.7414 -0.85955,-0.85818 -0.44595,-0.36878 -0.17275,-0.14785 -0.74233,-0.88216 -1.63479,-2.1 -1.09719,-1.52201 -0.52128,-0.77676 -1.96791,-3.13104 -1.12377,-1.87075 -0.9598,-1.58675 -1.34495,-2.35473 -1.03222,-2.04012 -1.0891,-2.517 -0.70857,-1.7318 -0.299,-0.7449 -0.58549,-1.84654 -0.51242,-1.947 -0.35014,-1.69116 -0.0653,-0.61766 -0.0287,-0.47858 0.0501,-1.04839 0.0545,-0.41012 0.0579,-0.35382 0.002,-0.45213 -0.0946,-0.16385 -0.10969,-0.0386 -0.23445,0.048 -0.22476,0.11521 -0.092,0.0677 -0.18061,0.19166 -0.19527,0.41857 -0.14637,0.8564 6.2e-4,1.23746 0.0474,0.78826 0.0383,0.54582 0.14576,1.11009 0.23988,1.17225 0.35294,1.26718 0.70409,2.12762 1.43144,3.51359 0.96714,2.17964 0.44866,0.97889 0.91239,1.83258 1.12422,1.97244 1.5034,2.45258 0.97994,1.54599 z m 3.55013,1.15439 1.18502,1.57323 0.54099,0.63432 0.32703,0.3646 0.53805,0.67971 0.51284,0.636 1.51992,1.59834 1.6653,1.57265 1.02216,0.83711 0.4598,0.3171 0.13783,0.0369 0.0971,0.0167 0.14199,-0.082 0.12387,-0.28997 0.003,-0.70088 -0.15621,-1.0021 -0.3231,-1.24072 -0.45847,-1.42472 -0.56691,-1.53687 -0.69551,-1.60826 -0.37591,-0.80245 -0.74967,-1.47505 -2.58606,-4.58008 -2.19584,-3.72764 -0.47129,-0.79106 -1.06486,-1.64261 -1.15732,-1.67661 -1.17579,-1.60769 -0.58682,-0.73892 -1.22872,-1.548 -0.86384,-1.11785 -0.8134,-1.03047 -1.67297,-1.88864 -0.63637,-0.62294 -0.31564,-0.26924 -0.34965,-0.17678 -0.17691,-0.0289 -0.13107,0.0756 -0.0979,0.15845 -0.0435,0.40381 0.0473,0.40967 0.0598,0.43151 0.36017,1.48148 0.47243,1.75162 0.46185,1.48102 0.1724,0.42475 0.31161,0.76675 0.49539,1.28689 0.55554,1.44149 0.51555,1.24612 0.41375,0.86798 1.71578,3.07272 2.22399,3.72595 2.07806,3.27136 0.73525,1.04645 z m -9.35891,-23.6516 0.33289,0.27386 1.02307,1.04047 1.26734,1.43833 1.38253,1.66309 0.67342,0.86369 1.60495,2.07355 2.11655,2.78308 1.40451,2.02907 1.3491,2.23582 0.90811,1.5729 1.06747,1.87412 1.39461,2.61734 0.19764,0.46844 0.0858,0.29999 0.39189,0.8806 0.24135,0.44322 0.25855,0.44784 0.51635,1.0709 0.73548,1.80364 0.82143,2.48221 0.38877,1.58148 0.1116,0.82396 0.006,0.28782 6.1e-4,0.20337 0.11441,0.39999 0.0992,0.14661 0.13367,0.15585 0.21936,0.0773 0.17769,-0.14628 0.12679,-0.33535 0.0666,-0.48997 -0.002,-0.61012 -0.075,-0.68488 -0.13932,-0.72059 -0.10642,-0.3609 -0.37141,-1.19826 -0.30329,-1.00458 -0.15225,-0.46552 -0.61522,-1.49442 -0.35237,-0.7869 -0.78041,-1.70488 -0.60846,-1.38181 -0.58323,-1.33812 -1.28832,-2.63502 -1.42737,-2.59842 -1.54923,-2.5572 -1.65844,-2.49414 -1.79121,-2.44661 -1.90044,-2.38355 -2.01599,-2.33141 -1.0563,-1.12325 -0.88647,-0.93001 -0.76159,-0.63803 -0.4295,-0.18894 -0.2412,-0.0646 -0.4009,-0.0889 -0.35966,0.0329 -0.12939,0.10383 -0.0197,0.14244 0.0854,0.19831 0.33333,0.37554 0.36903,0.31124 z"
       id="use4199"
       inkscape:connector-curvature="0" />
    <path
       style="fill:none;fill-rule:evenodd;stroke:#000000;stroke-width:1px;stroke-linecap:butt;stroke-linejoin:miter;stroke-opacity:1"
       d="m 17.716536,17.716538 283.464564,0 0,283.464562 -283.464564,0 0,-283.464562"
       id="path4227"
       inkscape:connector-curvature="0" />
    <path
       style="fill:none;fill-rule:evenodd;stroke:#000000;stroke-width:1px;stroke-linecap:butt;stroke-linejoin:miter;stroke-opacity:1"
       d="m 301.1811,17.716538 425.19685,0 0,283.464562 -141.73228,0 0,-141.73228 -283.46457,0 0,-141.732282"
       id="path4229"
       inkscape:connector-curvature="0" />
    <path
       style="fill:none;fill-rule:evenodd;stroke:#000000;stroke-width:1px;stroke-linecap:butt;stroke-linejoin:miter;stroke-opacity:1"
       d="m 301.1811,159.44882 0,283.46457 425.19685,0 0,-141.73229 -141.73228,0 0,-141.73228 z"
       id="path4231"
       inkscape:connector-curvature="0" />
    <path
       style="fill:none;fill-rule:evenodd;stroke:#000000;stroke-width:1px;stroke-linecap:butt;stroke-linejoin:miter;stroke-opacity:1"
       d="m 726.37795,584.64567 -566.92913,0 0,-141.73228 566.92913,0 z"
       id="path4233"
       inkscape:connector-curvature="0" />
    <path
       style="fill:none;fill-rule:evenodd;stroke:#000000;stroke-width:1px;stroke-linecap:butt;stroke-linejoin:miter;stroke-opacity:1"
       d="m 17.716536,726.37795 c 0,0 0,-425.19685 0,-425.19685 l 283.464564,0 0,141.73229 -141.73228,0 0,283.46456 z"
       id="path4235"
       inkscape:connector-curvature="0" />
    <path
       style="fill:none;fill-rule:evenodd;stroke:#000000;stroke-width:1px;stroke-linecap:butt;stroke-linejoin:miter;stroke-opacity:1"
       d="m 159.44882,726.37795 141.73228,0 0,-141.73228 -141.73228,0 z"
       id="path4237"
       inkscape:connector-curvature="0" />
    <path
       style="fill:none;fill-rule:evenodd;stroke:#000000;stroke-width:1px;stroke-linecap:butt;stroke-linejoin:miter;stroke-opacity:1"
       d="m 442.91338,726.37795 141.73229,0 0,-141.73228 -141.73229,0 z"
       id="path4241"
       inkscape:connector-curvature="0" />
    <path
       style="fill:none;fill-rule:evenodd;stroke:#000000;stroke-width:1px;stroke-linecap:butt;stroke-linejoin:miter;stroke-opacity:1"
       d="m 726.37795,584.64567 0,283.46457 -141.73228,0 0,141.73226 -283.46457,0 0,-141.73226 141.73228,0 0,-141.73229 141.73229,0 0,-141.73228 z"
       id="path4243"
       inkscape:connector-curvature="0" />
    <path
       style="fill:none;fill-rule:evenodd;stroke:#000000;stroke-width:1px;stroke-linecap:butt;stroke-linejoin:miter;stroke-opacity:1"
       d="m 584.64567,1009.8425 141.73228,0 0,-141.73226 -141.73228,0 z"
       id="path4245"
       inkscape:connector-curvature="0" />
    <path
       style="fill:none;fill-rule:evenodd;stroke:#000000;stroke-width:1px;stroke-linecap:butt;stroke-linejoin:miter;stroke-opacity:1"
       d="m 442.91338,584.64567 0,283.46457 -141.73228,0 0,141.73226 -141.73228,0 0,-283.46455 141.73228,0 0,-141.73228 z"
       id="path4247"
       inkscape:connector-curvature="0" />
    <path
       style="fill:none;fill-rule:evenodd;stroke:#000000;stroke-width:1px;stroke-linecap:butt;stroke-linejoin:miter;stroke-opacity:1"
       d="m 17.716536,726.37795 0,283.46455 141.732284,0 0,-283.46455 z"
       id="path4249"
       inkscape:connector-curvature="0" />
    <use
       x="0"
       y="0"
       xlink:href="#use4199"
       id="use4251"
       transform="translate(283.46457,-70.866565)"
       width="100%"
       height="100%" />
    <use
       x="0"
       y="0"
       xlink:href="#use4251"
       id="use4253"
       transform="translate(-4.3340776e-7,212.59842)"
       width="100%"
       height="100%" />
    <use
       x="0"
       y="0"
       xlink:href="#use4253"
       id="use4255"
       transform="translate(-354.33071,141.73229)"
       width="100%"
       height="100%" />
    <use
       x="0"
       y="0"
       xlink:href="#use4255"
       id="use4257"
       transform="translate(354.33071,70.866139)"
       width="100%"
       height="100%" />
    <use
       x="0"
       y="0"
       xlink:href="#use4257"
       id="use4259"
       transform="translate(-212.59842,141.73228)"
       width="100%"
       height="100%" />
    <use
       x="0"
       y="0"
       xlink:href="#use4259"
       id="use4261"
       transform="translate(283.46456,3.051935e-6)"
       width="100%"
       height="100%" />
    <use
       x="0"
       y="0"
       xlink:href="#use4261"
       id="use4263"
       transform="translate(-212.59842,141.73228)"
       width="100%"
       height="100%" />
    <use
       x="0"
       y="0"
       xlink:href="#use4263"
       id="use4265"
       transform="translate(-212.59843,70.866145)"
       width="100%"
       height="100%" />
    <use
       x="0"
       y="0"
       xlink:href="#use4265"
       id="use4267"
       transform="translate(425.19685,-4.611743e-7)"
       width="100%"
       height="100%" />
    <use
       x="0"
       y="0"
       xlink:href="#use4267"
       id="use4269"
       transform="translate(141.73228,70.866142)"
       width="100%"
       height="100%" />
  </g>
  <g
     inkscape:groupmode="layer"
     id="layer2"
     inkscape:label="Puntiky">
    <use
       x="0"
       y="0"
       xlink:href="#path4163"
       id="use4168"
       transform="translate(7.2381013e-8,141.73229)"
       width="100%"
       height="100%" />
    <circle
       style="opacity:1;fill:#ffffff;fill-opacity:1;stroke:#000000;stroke-width:0.35433072;stroke-linecap:round;stroke-miterlimit:4;stroke-dasharray:none;stroke-opacity:1"
       id="path4163"
       cx="283.46457"
       cy="88.582664"
       r="8.8582678" />
    <use
       x="0"
       y="0"
       xlink:href="#use4168"
       id="use4174"
       transform="translate(-53.149608,53.149607)"
       width="100%"
       height="100%" />
    <use
       x="0"
       y="0"
       xlink:href="#use4174"
       id="use4176"
       transform="translate(-141.73228,-2.6307559e-6)"
       width="100%"
       height="100%" />
    <use
       x="0"
       y="0"
       xlink:href="#use4176"
       id="use4178"
       transform="translate(-53.149609,-53.149607)"
       width="100%"
       height="100%" />
    <use
       x="0"
       y="0"
       xlink:href="#use4178"
       id="use4180"
       transform="translate(-4.388505e-7,-141.73228)"
       width="100%"
       height="100%" />
    <use
       x="0"
       y="0"
       xlink:href="#use4180"
       id="use4182"
       transform="translate(53.149608,-53.149612)"
       width="100%"
       height="100%" />
    <use
       x="0"
       y="0"
       xlink:href="#use4182"
       id="use4184"
       transform="translate(141.73229,2.0470338e-7)"
       width="100%"
       height="100%" />
    <use
       x="0"
       y="0"
       xlink:href="#use4176"
       id="use4186"
       transform="translate(-1.8508594e-6,35.433071)"
       width="100%"
       height="100%" />
    <use
       x="0"
       y="0"
       xlink:href="#use4186"
       id="use4188"
       transform="translate(141.73229,2.5647091e-7)"
       width="100%"
       height="100%" />
    <use
       x="0"
       y="0"
       xlink:href="#use4186"
       id="use4190"
       transform="translate(-53.149608,53.149607)"
       width="100%"
       height="100%" />
    <use
       x="0"
       y="0"
       xlink:href="#use4190"
       id="use4192"
       transform="translate(4.1200891e-7,141.73229)"
       width="100%"
       height="100%" />
    <use
       x="0"
       y="0"
       xlink:href="#use4192"
       id="use4194"
       transform="translate(106.29922,-4.8329389e-6)"
       width="100%"
       height="100%" />
    <use
       x="0"
       y="0"
       xlink:href="#use4188"
       id="use4196"
       transform="translate(-3.0986906e-6,106.29921)"
       width="100%"
       height="100%" />
    <use
       x="0"
       y="0"
       xlink:href="#use4196"
       id="use4198"
       transform="translate(53.149608,-53.149603)"
       width="100%"
       height="100%" />
    <use
       x="0"
       y="0"
       xlink:href="#use4192"
       id="use4200"
       transform="translate(0,141.73228)"
       width="100%"
       height="100%" />
    <use
       x="0"
       y="0"
       xlink:href="#use4194"
       id="use4202"
       transform="translate(0,141.73228)"
       width="100%"
       height="100%" />
    <use
       x="0"
       y="0"
       xlink:href="#use4202"
       id="use4204"
       transform="translate(-53.149612,53.149612)"
       width="100%"
       height="100%" />
    <use
       x="0"
       y="0"
       xlink:href="#use4202"
       id="use4206"
       transform="translate(35.433067,5.0258836e-6)"
       width="100%"
       height="100%" />
    <use
       x="0"
       y="0"
       xlink:href="#use4206"
       id="use4208"
       transform="translate(53.149607,-53.149607)"
       width="100%"
       height="100%" />
    <use
       x="0"
       y="0"
       xlink:href="#use4208"
       id="use4210"
       transform="translate(53.149608,53.149607)"
       width="100%"
       height="100%" />
    <use
       x="0"
       y="0"
       xlink:href="#use4210"
       id="use4212"
       transform="translate(-53.149608,53.149607)"
       width="100%"
       height="100%" />
    <use
       x="0"
       y="0"
       xlink:href="#use4208"
       id="use4214"
       transform="translate(4.893005e-7,-35.433071)"
       width="100%"
       height="100%" />
    <use
       x="0"
       y="0"
       xlink:href="#use4214"
       id="use4216"
       transform="translate(-53.149608,-53.149607)"
       width="100%"
       height="100%" />
    <use
       x="0"
       y="0"
       xlink:href="#use4216"
       id="use4218"
       transform="translate(53.149608,-53.149607)"
       width="100%"
       height="100%" />
    <use
       x="0"
       y="0"
       xlink:href="#use4214"
       id="use4220"
       transform="translate(141.73229,-1.4117722e-7)"
       width="100%"
       height="100%" />
    <use
       x="0"
       y="0"
       xlink:href="#use4218"
       id="use4222"
       transform="translate(141.73229,-1.4117722e-7)"
       width="100%"
       height="100%" />
    <use
       x="0"
       y="0"
       xlink:href="#use4220"
       id="use4224"
       transform="translate(141.73228,0)"
       width="100%"
       height="100%" />
    <use
       x="0"
       y="0"
       xlink:href="#use4222"
       id="use4226"
       transform="translate(141.73228,0)"
       width="100%"
       height="100%" />
    <use
       x="0"
       y="0"
       xlink:href="#use4224"
       id="use4228"
       transform="translate(141.73229,0)"
       width="100%"
       height="100%" />
    <use
       x="0"
       y="0"
       xlink:href="#use4226"
       id="use4230"
       transform="translate(141.73229,0)"
       width="100%"
       height="100%" />
    <use
       x="0"
       y="0"
       xlink:href="#use4230"
       id="use4232"
       transform="translate(53.149608,53.149607)"
       width="100%"
       height="100%" />
    <use
       x="0"
       y="0"
       xlink:href="#use4224"
       id="use4234"
       transform="translate(3.8026191e-6,-141.73229)"
       width="100%"
       height="100%" />
    <use
       x="0"
       y="0"
       xlink:href="#use4228"
       id="use4236"
       transform="translate(3.8026191e-6,-141.73229)"
       width="100%"
       height="100%" />
    <use
       x="0"
       y="0"
       xlink:href="#use4230"
       id="use4238"
       transform="translate(3.8026191e-6,-141.73229)"
       width="100%"
       height="100%" />
    <use
       x="0"
       y="0"
       xlink:href="#use4232"
       id="use4240"
       transform="translate(3.8026191e-6,-141.73229)"
       width="100%"
       height="100%" />
    <use
       x="0"
       y="0"
       xlink:href="#use4234"
       id="use4242"
       transform="translate(-141.73229,4.9741163e-6)"
       width="100%"
       height="100%" />
    <use
       x="0"
       y="0"
       xlink:href="#use4242"
       id="use4244"
       transform="translate(-53.149604,-53.149607)"
       width="100%"
       height="100%" />
    <use
       x="0"
       y="0"
       xlink:href="#use4244"
       id="use4246"
       transform="translate(-4.8930059e-7,-141.73228)"
       width="100%"
       height="100%" />
    <use
       x="0"
       y="0"
       xlink:href="#use4246"
       id="use4248"
       transform="translate(53.149608,-53.149612)"
       width="100%"
       height="100%" />
    <use
       x="0"
       y="0"
       xlink:href="#use4248"
       id="use4250"
       transform="translate(141.73229,2.0470338e-7)"
       width="100%"
       height="100%" />
    <use
       x="0"
       y="0"
       xlink:href="#use4250"
       id="use4252"
       transform="translate(53.149604,53.149607)"
       width="100%"
       height="100%" />
    <use
       x="0"
       y="0"
       xlink:href="#use4246"
       id="use4254"
       transform="translate(0,-141.73229)"
       width="100%"
       height="100%" />
    <use
       x="0"
       y="0"
       xlink:href="#use4248"
       id="use4256"
       transform="translate(0,-141.73229)"
       width="100%"
       height="100%" />
    <use
       x="0"
       y="0"
       xlink:href="#use4250"
       id="use4258"
       transform="translate(0,-141.73229)"
       width="100%"
       height="100%" />
    <use
       x="0"
       y="0"
       xlink:href="#use4248"
       id="use4260"
       transform="translate(-4.1200894e-7,-35.433071)"
       width="100%"
       height="100%" />
    <use
       x="0"
       y="0"
       xlink:href="#use4250"
       id="use4262"
       transform="translate(-4.1200894e-7,-35.433071)"
       width="100%"
       height="100%" />
    <use
       x="0"
       y="0"
       xlink:href="#use4262"
       id="use4264"
       transform="translate(88.582676,88.582678)"
       width="100%"
       height="100%" />
    <use
       x="0"
       y="0"
       xlink:href="#use4264"
       id="use4266"
       transform="translate(53.149608,53.149607)"
       width="100%"
       height="100%" />
    <use
       x="0"
       y="0"
       xlink:href="#use4266"
       id="use4268"
       transform="translate(53.149607,-53.149607)"
       width="100%"
       height="100%" />
    <use
       x="0"
       y="0"
       xlink:href="#use4268"
       id="use4270"
       transform="translate(3.9061001e-7,-141.73229)"
       width="100%"
       height="100%" />
    <use
       x="0"
       y="0"
       xlink:href="#use4270"
       id="use4272"
       transform="translate(-70.866143,-53.149602)"
       width="100%"
       height="100%" />
    <use
       x="0"
       y="0"
       xlink:href="#use4228"
       id="use4274"
       transform="translate(-141.73229,141.73229)"
       width="100%"
       height="100%" />
    <use
       x="0"
       y="0"
       xlink:href="#use4230"
       id="use4276"
       transform="translate(-141.73229,141.73229)"
       width="100%"
       height="100%" />
    <use
       x="0"
       y="0"
       xlink:href="#use4232"
       id="use4278"
       transform="translate(-141.73229,141.73229)"
       width="100%"
       height="100%" />
    <use
       x="0"
       y="0"
       xlink:href="#use4274"
       id="use4280"
       transform="translate(-53.149604,-53.149612)"
       width="100%"
       height="100%" />
    <use
       x="0"
       y="0"
       xlink:href="#use4276"
       id="use4282"
       transform="translate(141.73229,-4.8588226e-6)"
       width="100%"
       height="100%" />
    <use
       x="0"
       y="0"
       xlink:href="#use4278"
       id="use4284"
       transform="translate(141.73229,-4.8588226e-6)"
       width="100%"
       height="100%" />
    <use
       x="0"
       y="0"
       xlink:href="#use4280"
       id="use4286"
       transform="translate(141.73229,-4.8588226e-6)"
       width="100%"
       height="100%" />
    <use
       x="0"
       y="0"
       xlink:href="#use4282"
       id="use4288"
       transform="translate(-283.46458,4.9999999e-6)"
       width="100%"
       height="100%" />
    <use
       x="0"
       y="0"
       xlink:href="#use4284"
       id="use4290"
       transform="translate(-283.46458,4.9999999e-6)"
       width="100%"
       height="100%" />
    <use
       x="0"
       y="0"
       xlink:href="#use4286"
       id="use4292"
       transform="translate(-283.46458,4.9999999e-6)"
       width="100%"
       height="100%" />
    <use
       x="0"
       y="0"
       xlink:href="#use4290"
       id="use4294"
       transform="translate(6.4893006e-6,141.73228)"
       width="100%"
       height="100%" />
    <use
       x="0"
       y="0"
       xlink:href="#use4294"
       id="use4296"
       transform="translate(-53.149608,53.149607)"
       width="100%"
       height="100%" />
    <use
       x="0"
       y="0"
       xlink:href="#use4296"
       id="use4298"
       transform="translate(-141.73229,-106.29921)"
       width="100%"
       height="100%" />
    <use
       x="0"
       y="0"
       xlink:href="#use4298"
       id="use4300"
       transform="translate(-53.149604,53.149603)"
       width="100%"
       height="100%" />
    <use
       x="0"
       y="0"
       xlink:href="#use4200"
       id="use4302"
       transform="translate(141.73228,283.46458)"
       width="100%"
       height="100%" />
    <use
       x="0"
       y="0"
       xlink:href="#use4202"
       id="use4304"
       transform="translate(141.73228,283.46458)"
       width="100%"
       height="100%" />
    <use
       x="0"
       y="0"
       xlink:href="#use4204"
       id="use4306"
       transform="translate(141.73228,283.46458)"
       width="100%"
       height="100%" />
    <use
       x="0"
       y="0"
       xlink:href="#use4302"
       id="use4308"
       transform="translate(-141.73228,-4.9223488e-6)"
       width="100%"
       height="100%" />
    <use
       x="0"
       y="0"
       xlink:href="#use4304"
       id="use4310"
       transform="translate(-141.73228,-4.9223488e-6)"
       width="100%"
       height="100%" />
    <use
       x="0"
       y="0"
       xlink:href="#use4306"
       id="use4312"
       transform="translate(-141.73228,-4.9223488e-6)"
       width="100%"
       height="100%" />
    <use
       x="0"
       y="0"
       xlink:href="#use4308"
       id="use4314"
       transform="translate(0,-141.73229)"
       width="100%"
       height="100%" />
    <use
       x="0"
       y="0"
       xlink:href="#use4310"
       id="use4316"
       transform="translate(0,-141.73229)"
       width="100%"
       height="100%" />
    <use
       x="0"
       y="0"
       xlink:href="#use4204"
       id="use4318"
       transform="translate(-4.1200894e-7,35.433071)"
       width="100%"
       height="100%" />
    <use
       x="0"
       y="0"
       xlink:href="#use4284"
       id="use4320"
       transform="translate(2.9191938e-7,124.01575)"
       width="100%"
       height="100%" />
    <use
       x="0"
       y="0"
       xlink:href="#use4320"
       id="use4322"
       transform="translate(-53.149608,70.866142)"
       width="100%"
       height="100%" />
    <use
       x="0"
       y="0"
       xlink:href="#use4322"
       id="use4324"
       transform="translate(-141.73229,-106.29921)"
       width="100%"
       height="100%" />
    <use
       x="0"
       y="0"
       xlink:href="#use4324"
       id="use4326"
       transform="translate(-53.149604,53.149603)"
       width="100%"
       height="100%" />
    <use
       x="0"
       y="0"
       xlink:href="#use4322"
       id="use4328"
       transform="translate(-88.582679,88.582678)"
       width="100%"
       height="100%" />
    <use
       x="0"
       y="0"
       xlink:href="#use4328"
       id="use4330"
       transform="translate(-53.149607,53.149607)"
       width="100%"
       height="100%" />
    <use
       x="0"
       y="0"
       xlink:href="#use4330"
       id="use4332"
       transform="translate(-141.73229,-106.29921)"
       width="100%"
       height="100%" />
    <use
       x="0"
       y="0"
       xlink:href="#use4332"
       id="use4334"
       transform="translate(2.6093902e-6,106.29921)"
       width="100%"
       height="100%" />
    <use
       x="0"
       y="0"
       xlink:href="#use4334"
       id="use4336"
       transform="translate(-53.149608,-53.149607)"
       width="100%"
       height="100%" />
    <use
       x="0"
       y="0"
       xlink:href="#use4206"
       id="use4338"
       transform="translate(425.19686,283.46457)"
       width="100%"
       height="100%" />
    <use
       x="0"
       y="0"
       xlink:href="#use4208"
       id="use4340"
       transform="translate(425.19686,283.46457)"
       width="100%"
       height="100%" />
    <use
       x="0"
       y="0"
       xlink:href="#use4210"
       id="use4342"
       transform="translate(425.19686,283.46457)"
       width="100%"
       height="100%" />
    <use
       x="0"
       y="0"
       xlink:href="#use4212"
       id="use4344"
       transform="translate(425.19686,283.46457)"
       width="100%"
       height="100%" />
  </g>
</svg>
